<?xml version="1.0" standalone="no"?>
<!DOCTYPE svg PUBLIC "-//W3C//DTD SVG 20010904//EN"
 "http://www.w3.org/TR/2001/REC-SVG-20010904/DTD/svg10.dtd">
<svg version="1.0" xmlns="http://www.w3.org/2000/svg"
 width="679.000000pt" height="678.000000pt" viewBox="0 0 679.000000 678.000000"
 preserveAspectRatio="xMidYMid meet">

<g transform="translate(0.000000,678.000000) scale(0.100000,-0.100000)"
fill="#000000" stroke="none">
<path d="M3024 6747 c-6 -17 65 -800 74 -808 4 -4 81 -28 171 -53 l163 -47
162 46 c88 26 164 50 168 54 10 9 80 791 74 808 -8 19 -804 19 -812 0z m646
-217 l0 -50 -191 0 -192 0 7 -37 c3 -21 6 -44 6 -50 0 -10 43 -13 180 -13
l180 0 -5 -42 c-3 -24 -10 -90 -15 -147 -5 -57 -12 -107 -17 -111 -4 -4 -49
-20 -100 -34 l-92 -27 -98 29 c-106 32 -110 35 -112 115 l-1 37 50 0 c46 0 50
-2 50 -24 0 -20 7 -25 55 -34 40 -8 70 -8 109 -1 l54 11 6 46 c12 90 27 82
-163 82 l-168 0 -6 53 c-4 28 -9 96 -13 150 l-7 97 242 0 241 0 0 -50z"/>
<path d="M1336 6444 c-14 -13 -16 -64 -16 -403 0 -363 1 -389 18 -404 17 -15
59 -17 404 -17 360 0 386 1 401 18 15 17 17 59 17 404 0 360 -1 386 -18 401
-17 15 -59 17 -405 17 -337 0 -388 -2 -401 -16z m318 -319 c-4 -8 -14 -15 -24
-15 -33 0 -33 -21 -1 -54 53 -55 35 -116 -35 -116 -27 0 -34 4 -34 20 0 16 5
19 23 15 14 -4 28 -1 35 8 10 11 5 21 -23 50 -39 40 -43 61 -18 89 21 23 85
26 77 3z m129 0 c24 -23 30 -86 14 -134 -13 -36 -13 -43 -1 -48 8 -3 14 -12
14 -20 0 -11 -5 -13 -17 -8 -10 4 -34 13 -53 20 -42 15 -60 45 -60 103 0 62
23 102 60 102 16 0 35 -7 43 -15z m87 -70 c0 -84 0 -85 25 -85 16 0 25 -6 25
-15 0 -11 -12 -15 -45 -15 l-45 0 0 100 c0 93 1 100 20 100 18 0 20 -7 20 -85z"/>
<path d="M1726 6095 c-3 -9 -6 -35 -6 -58 0 -74 32 -91 43 -23 10 60 -20 125
-37 81z"/>
<path d="M4840 6437 c0 -30 61 -672 64 -675 3 -2 66 -22 140 -43 l136 -39 136
39 c74 21 137 41 140 43 3 3 64 645 64 675 0 2 -153 3 -340 3 -187 0 -340 -1
-340 -3z m516 -249 c-3 -51 -9 -139 -12 -195 l-7 -102 -78 -26 -79 -27 -80 27
-80 27 0 54 0 54 39 0 c35 0 40 -3 43 -27 4 -35 62 -57 111 -41 42 14 44 16
52 66 l7 42 -91 0 -91 0 0 40 0 40 90 0 c50 0 90 4 90 9 0 5 3 23 6 40 l7 31
-142 0 -141 0 0 40 0 40 181 0 182 0 -7 -92z"/>
<path d="M105 5458 c-3 -7 -4 -195 -3 -418 l3 -405 415 0 415 0 0 415 0 415
-413 3 c-325 2 -414 0 -417 -10z m495 -403 l0 -35 -50 0 -50 0 0 -155 0 -155
-40 0 -40 0 0 155 0 155 -50 0 -50 0 0 35 0 35 140 0 140 0 0 -35z m218 29
c17 -5 22 -13 22 -41 0 -29 -3 -34 -17 -28 -10 4 -34 9 -54 12 -30 4 -39 1
-52 -17 -21 -31 -15 -41 47 -73 76 -40 91 -59 91 -119 0 -42 -4 -53 -28 -73
-35 -30 -85 -40 -150 -29 l-52 9 -3 43 -3 43 31 -16 c18 -9 48 -15 73 -13 37
3 42 6 45 30 3 24 -3 30 -46 52 -64 32 -102 78 -102 120 0 37 31 83 64 96 25
10 101 12 134 4z"/>
<path d="M6062 5090 c-70 -43 -92 -128 -49 -191 34 -52 78 -69 175 -69 l82 0
0 140 0 140 -87 0 c-70 0 -95 -4 -121 -20z"/>
<path d="M6310 4970 l0 -140 83 0 c126 0 184 40 194 131 5 53 -20 99 -69 129
-26 16 -51 20 -120 20 l-88 0 0 -140z"/>
<path d="M6062 4770 c-70 -43 -92 -128 -49 -191 34 -52 78 -69 175 -69 l82 0
0 140 0 140 -87 0 c-70 0 -95 -4 -121 -20z"/>
<path d="M6382 4770 c-42 -26 -72 -76 -72 -120 0 -68 69 -140 135 -140 39 0
94 28 118 61 29 40 33 107 8 147 -27 42 -77 72 -121 72 -19 0 -50 -9 -68 -20z"/>
<path d="M6062 4450 c-70 -43 -92 -128 -49 -191 62 -93 189 -87 239 12 13 24
18 58 18 117 l0 82 -87 0 c-70 0 -95 -4 -121 -20z"/>
<path d="M103 4068 c-28 -13 -33 -54 -6 -44 9 4 36 10 59 13 34 4 46 1 63 -16
11 -11 21 -31 21 -44 0 -21 -4 -22 -66 -22 -60 0 -68 -3 -90 -28 -30 -35 -31
-78 -1 -113 18 -21 32 -26 64 -26 23 0 53 8 68 18 24 16 26 16 39 -1 10 -14
16 -16 34 -6 18 10 20 16 12 31 -5 10 -10 58 -10 105 0 82 -1 88 -29 116 -25
25 -37 29 -83 28 -29 0 -63 -5 -75 -11z m135 -175 c5 -35 -32 -65 -76 -61 -32
3 -37 7 -40 31 -5 43 14 58 67 55 39 -3 47 -7 49 -25z"/>
<path d="M326 4072 c-5 -9 59 -233 75 -264 6 -10 21 -18 34 -18 19 0 26 7 31
28 10 47 25 105 36 147 l11 40 27 -105 c26 -103 27 -105 55 -105 28 0 30 3 71
135 23 74 39 139 34 143 -4 5 -17 6 -28 3 -16 -5 -25 -27 -42 -99 -13 -51 -26
-98 -30 -106 -5 -9 -16 24 -30 85 -25 107 -37 129 -68 120 -15 -5 -24 -28 -43
-112 -12 -57 -26 -99 -30 -92 -3 7 -17 54 -30 103 -12 50 -28 93 -33 97 -15
10 -34 10 -40 0z"/>
<path d="M759 4051 c-16 -16 -29 -38 -29 -49 0 -33 38 -70 89 -87 62 -20 77
-36 61 -66 -11 -20 -17 -21 -82 -16 -62 5 -69 4 -66 -11 4 -23 74 -44 120 -37
73 13 111 85 71 134 -10 11 -43 29 -73 39 -46 16 -56 23 -58 45 -3 22 2 28 24
33 15 4 45 3 66 -3 36 -10 38 -9 38 12 0 26 -22 35 -88 35 -35 0 -49 -6 -73
-29z"/>
<path d="M3325 3724 c-71 -37 -105 -91 -105 -168 0 -58 14 -93 53 -134 55 -57
155 -73 228 -36 53 27 109 113 109 169 0 60 -60 148 -117 171 -43 19 -131 17
-168 -2z"/>
<path d="M863 3719 c-23 -6 -46 -16 -52 -23 -9 -10 1 -13 52 -12 57 1 62 -1
65 -22 2 -13 -3 -43 -12 -68 -18 -54 -5 -57 28 -6 26 39 44 116 30 125 -21 12
-72 14 -111 6z"/>
<path d="M20 3696 c0 -2 24 -22 53 -44 195 -146 454 -181 687 -91 77 30 141
72 128 85 -4 4 -42 -5 -85 -19 -227 -74 -482 -58 -702 43 -60 28 -81 35 -81
26z"/>
<path d="M5860 3195 l0 -165 125 0 125 0 0 -30 0 -30 105 0 105 0 0 30 0 30
235 0 235 0 0 165 0 165 -465 0 -465 0 0 -165z m248 -2 l3 -113 -31 0 -30 0 0
85 c0 84 0 85 -25 85 -25 0 -25 -1 -25 -85 l0 -85 -55 0 -55 0 0 108 c0 60 3
112 7 116 4 4 52 5 107 4 l101 -3 3 -112z m262 2 l0 -115 -49 0 c-47 0 -50 -2
-53 -27 -3 -26 -7 -28 -55 -31 l-53 -3 0 145 0 146 105 0 105 0 0 -115z m378
-2 l3 -113 -31 0 -30 0 0 85 c0 84 0 85 -25 85 -25 0 -25 -1 -25 -85 0 -84 0
-85 -25 -85 -25 0 -25 1 -25 85 l0 85 -30 0 -30 0 0 -85 0 -85 -50 0 -50 0 0
115 0 116 158 -3 157 -3 3 -112z"/>
<path d="M6270 3190 c0 -57 1 -60 25 -60 24 0 25 3 25 60 0 57 -1 60 -25 60
-24 0 -25 -3 -25 -60z"/>
<path d="M330 3001 c-144 -46 -281 -152 -315 -244 -15 -40 -16 -54 -6 -87 12
-39 63 -101 110 -133 l25 -16 -47 -41 c-51 -45 -72 -94 -63 -145 19 -98 168
-102 246 -7 23 28 32 34 42 24 15 -15 64 -16 74 -1 3 6 17 8 30 5 14 -4 34 -1
47 5 12 7 43 11 69 10 27 -1 60 5 77 14 17 8 45 15 63 15 48 0 97 34 115 80
18 45 42 52 81 24 22 -15 22 -17 7 -34 -20 -22 -16 -59 6 -73 39 -24 109 38
109 96 0 29 -35 83 -73 111 -22 16 -43 21 -93 21 l-66 0 6 37 c9 53 -21 83
-73 74 -20 -3 -41 -13 -48 -22 -9 -12 -18 -14 -37 -8 l-25 9 29 43 c51 77 50
160 -3 211 -57 52 -180 66 -287 32z m228 -40 c39 -20 62 -55 62 -94 -1 -39
-36 -102 -76 -135 -86 -72 -251 -84 -284 -22 -11 21 -11 21 21 4 67 -34 185 0
247 71 76 86 40 151 -78 141 -146 -11 -340 -138 -340 -222 0 -41 21 -71 84
-122 l62 -49 40 19 c21 11 50 30 64 43 43 39 66 47 84 29 9 -8 16 -21 16 -29
0 -7 6 -15 14 -18 12 -5 12 -14 0 -62 -9 -32 -13 -59 -11 -61 4 -4 72 139 89
189 7 20 17 27 35 27 23 0 25 -3 19 -34 -4 -18 -2 -44 2 -57 9 -24 9 -24 31
11 12 19 27 50 33 67 11 30 42 52 55 40 3 -3 6 -30 6 -60 1 -31 4 -58 7 -61 3
-3 25 0 48 6 77 19 152 -15 168 -76 7 -28 -17 -76 -38 -76 -6 0 -4 8 5 18 10
10 17 25 17 33 0 48 -77 87 -145 75 -33 -7 -36 -10 -31 -32 8 -32 -40 -84 -78
-84 -35 0 -35 38 -1 79 24 27 25 32 12 62 l-13 33 -23 -40 c-17 -27 -23 -52
-22 -80 1 -35 -3 -46 -25 -63 -26 -20 -94 -30 -94 -13 0 5 16 27 35 49 34 40
34 42 21 79 l-13 39 -46 -91 c-25 -50 -52 -94 -60 -97 -19 -7 -37 11 -37 37
-1 16 -6 11 -21 -16 -26 -51 -55 -51 -75 -1 -10 24 -14 51 -10 75 7 41 5 44
-22 27 -13 -8 -16 -21 -13 -55 4 -57 -12 -96 -56 -134 -26 -24 -43 -30 -78
-30 -114 0 -95 112 32 187 l44 25 -43 31 c-141 101 -166 162 -99 250 107 140
359 229 479 168z m-50 -77 c76 -21 -62 -144 -162 -144 -22 0 -47 7 -57 16 -23
21 -65 11 -74 -17 -10 -29 21 -69 74 -96 l43 -22 -33 -20 c-19 -12 -36 -21
-39 -21 -3 0 -29 22 -58 48 -62 57 -65 78 -17 130 74 83 241 148 323 126z m1
-245 c-9 -17 -13 -19 -19 -8 -11 16 -4 29 16 29 12 0 13 -4 3 -21z"/>
<path d="M389 2569 c-23 -33 -39 -129 -22 -129 6 0 20 22 32 50 43 99 37 145
-10 79z"/>
<path d="M700 2499 c-7 -11 -9 -24 -5 -27 7 -7 35 25 35 40 0 16 -19 8 -30
-13z"/>
<path d="M192 2461 c-45 -33 -62 -58 -62 -90 0 -15 6 -21 24 -21 35 0 74 36
87 81 18 57 2 66 -49 30z"/>
<path d="M580 2458 c-12 -22 -12 -22 6 -6 10 10 15 20 12 24 -4 3 -12 -5 -18
-18z"/>
<path d="M5867 2322 c-15 -17 -17 -59 -17 -404 0 -360 1 -386 18 -401 17 -15
59 -17 404 -17 360 0 386 1 401 18 15 17 17 59 17 404 0 360 -1 386 -18 401
-17 15 -59 17 -404 17 -360 0 -386 -1 -401 -18z m441 -522 c-3 -157 -3 -160
-29 -186 -50 -50 -154 -38 -193 22 -15 22 -15 24 9 40 24 16 28 16 61 -2 26
-14 38 -16 52 -8 15 10 17 31 20 153 l3 141 40 0 40 0 -3 -160z m240 140 c38
-24 41 -46 7 -62 -19 -9 -28 -9 -37 0 -17 17 -65 15 -72 -3 -10 -27 4 -41 66
-71 99 -47 128 -125 70 -184 -54 -53 -149 -52 -203 2 l-31 32 28 23 29 22 25
-24 c29 -28 71 -33 90 -10 21 25 2 49 -63 83 -67 34 -87 60 -87 113 0 40 15
65 48 83 38 21 91 19 130 -4z"/>
<path d="M546 1954 c-284 -69 -431 -405 -290 -664 35 -65 127 -153 198 -190
76 -39 86 -32 86 61 l0 69 -46 0 c-60 0 -80 12 -105 63 -12 23 -28 50 -37 60
-31 35 10 18 54 -23 38 -35 49 -40 92 -40 39 0 57 6 86 29 l37 29 -52 11 c-63
14 -85 25 -126 64 -32 29 -32 30 -112 23 -52 -5 -81 -4 -81 3 0 5 36 13 80 17
44 3 77 10 74 15 -3 5 -41 9 -85 9 -51 0 -78 4 -74 10 3 6 40 10 81 10 l74 0
0 30 c0 17 7 47 15 66 9 23 13 50 9 75 -14 86 12 107 85 69 35 -17 45 -18 95
-8 43 9 69 9 112 0 50 -10 59 -9 92 8 74 40 99 20 87 -68 -4 -33 -1 -58 9 -84
9 -21 16 -49 16 -63 0 -25 1 -25 80 -25 47 0 80 -4 80 -10 0 -6 -35 -10 -85
-10 -47 0 -85 -4 -85 -9 0 -4 36 -12 80 -15 44 -4 80 -12 80 -17 0 -6 -31 -7
-86 -3 -80 6 -86 6 -100 -15 -19 -26 -76 -56 -138 -72 l-46 -11 26 -21 c38
-30 54 -77 54 -160 0 -100 9 -107 86 -67 151 79 254 244 254 405 -1 302 -279
520 -574 449z"/>
<path d="M2278 1195 c-9 -20 -9 -28 1 -38 9 -9 16 -7 31 13 22 28 21 44 -3 48
-10 2 -21 -7 -29 -23z"/>
<path d="M1663 1139 c-81 -24 -123 -171 -87 -301 4 -13 -3 -21 -23 -28 -68
-26 -137 -67 -168 -101 -96 -106 -29 -225 168 -298 24 -9 27 -14 20 -38 -4
-16 -7 -62 -7 -104 1 -126 50 -193 141 -193 56 1 120 27 186 77 l47 37 48 -37
c181 -139 325 -88 326 116 0 42 -3 88 -7 104 -7 24 -4 29 20 38 68 25 137 66
168 100 96 106 29 225 -168 298 -24 9 -27 14 -20 38 4 16 7 62 7 104 -1 126
-50 193 -141 193 -56 -1 -120 -27 -185 -77 l-48 -37 -47 37 c-85 64 -168 91
-230 72z m132 -59 c22 -11 57 -34 78 -51 l38 -31 -38 -42 c-21 -22 -47 -53
-58 -67 -16 -20 -35 -28 -90 -37 -118 -21 -108 -24 -118 41 -14 102 15 188 73
210 22 9 69 -1 115 -23z m442 -1 c30 -29 46 -112 36 -186 -10 -65 0 -62 -118
-41 -55 9 -74 17 -90 37 -11 14 -37 44 -57 67 l-38 41 23 20 c98 88 191 111
244 62z m-249 -159 l43 -50 -91 0 -91 0 43 50 c24 27 45 50 48 50 3 0 24 -23
48 -50z m75 -102 c25 -20 117 -180 117 -205 0 -26 -74 -163 -107 -199 -21 -23
-29 -24 -133 -24 -128 0 -125 -2 -189 108 -66 114 -66 108 -12 202 76 133 71
130 198 130 72 0 115 -4 126 -12z m-303 -2 c0 -3 -51 -91 -79 -136 -7 -12 -13
-7 -26 24 -9 22 -17 51 -18 65 -2 23 3 26 53 37 68 15 70 15 70 10z m445 -14
c35 -7 40 -12 38 -33 -1 -14 -9 -43 -18 -65 -13 -31 -19 -36 -26 -24 -29 46
-79 133 -79 136 0 3 10 2 23 -1 12 -3 40 -9 62 -13z m-582 -124 l25 -68 -25
-67 c-14 -38 -28 -75 -32 -84 -5 -15 -11 -15 -61 4 -76 30 -150 102 -150 147
0 45 74 117 150 147 50 19 56 19 61 4 4 -9 18 -46 32 -83z m783 52 c53 -33 94
-87 94 -122 0 -43 -78 -118 -151 -146 -50 -19 -55 -19 -60 -4 -4 10 -18 48
-32 85 l-26 68 19 44 c11 25 24 62 30 84 l10 40 42 -15 c22 -8 56 -23 74 -34z
m-681 -264 c20 -32 34 -60 33 -62 -2 -1 -30 3 -63 10 -55 11 -60 14 -58 37 1
14 9 43 18 65 13 31 19 36 26 24 5 -8 25 -42 44 -74z m510 23 c10 -28 13 -54
9 -59 -10 -8 -117 -30 -123 -25 -2 2 6 16 17 32 10 15 29 47 41 71 12 23 26
40 31 37 4 -3 16 -28 25 -56z m-511 -121 c56 -9 75 -17 91 -37 11 -14 37 -45
58 -67 l38 -42 -38 -31 c-89 -74 -181 -95 -227 -52 -32 30 -49 108 -40 181 8
66 11 73 31 66 8 -4 47 -11 87 -18z m549 -42 c11 -76 -6 -156 -39 -187 -46
-43 -138 -22 -227 52 l-38 31 38 42 c21 22 47 53 59 67 15 20 33 28 73 34 28
4 64 11 79 15 41 13 46 8 55 -54z m-285 -26 c-24 -27 -45 -50 -48 -50 -3 0
-24 23 -48 50 l-43 50 91 0 91 0 -43 -50z"/>
<path d="M1872 730 c-70 -43 -92 -128 -49 -191 57 -86 178 -88 233 -4 77 118
-64 268 -184 195z m117 -34 c47 -25 63 -83 37 -135 -35 -66 -137 -66 -172 0
-47 91 44 182 135 135z"/>
<path d="M2342 1124 c-18 -12 -20 -19 -11 -30 9 -11 15 -11 41 2 30 15 33 37
7 42 -8 1 -24 -5 -37 -14z"/>
<path d="M2365 1026 c-16 -13 -17 -17 -6 -25 18 -12 66 2 66 20 0 20 -36 23
-60 5z"/>
<path d="M3476 955 c-172 -44 -308 -194 -338 -372 -51 -303 217 -573 521 -526
98 15 171 52 245 123 112 108 163 254 138 399 -6 38 -17 80 -23 94 l-11 24
-22 -21 c-12 -12 -30 -26 -40 -31 -16 -9 -16 -15 -5 -58 38 -154 -53 -334
-205 -404 -52 -24 -74 -28 -146 -28 -72 0 -94 4 -145 28 -78 36 -146 104 -182
181 -24 52 -28 74 -28 146 0 72 4 94 28 145 76 162 257 248 422 200 49 -14 60
-14 64 -3 2 7 17 25 33 40 l28 26 -57 22 c-75 28 -197 35 -277 15z"/>
<path d="M2367 934 c-18 -19 -5 -34 29 -34 28 0 35 3 32 18 -3 17 -48 29 -61
16z"/>
<path d="M3828 874 c-30 -16 -58 -61 -58 -94 0 -53 57 -110 110 -110 53 0 110
57 110 110 0 34 -28 78 -60 95 -36 19 -67 19 -102 -1z"/>
<path d="M5570 715 l0 -85 -23 11 c-19 9 -32 5 -73 -18 l-49 -29 0 -64 0 -64
49 -29 50 -29 40 23 c69 37 66 29 66 190 0 141 -1 149 -22 163 -12 9 -26 16
-30 16 -5 0 -8 -38 -8 -85z m-19 -145 c27 -15 26 -66 -2 -81 -49 -26 -96 44
-51 77 21 16 28 17 53 4z"/>
<path d="M3522 699 c-48 -14 -109 -80 -123 -131 -23 -89 12 -182 88 -229 57
-36 154 -34 210 3 62 41 88 90 88 168 0 77 -26 127 -85 166 -43 29 -125 39
-178 23z"/>
<path d="M4990 621 l-45 -27 -3 -77 c-2 -42 1 -77 5 -77 5 0 19 7 31 16 17 12
22 25 22 58 0 35 4 45 24 55 40 22 66 0 66 -54 0 -34 5 -47 22 -59 12 -9 26
-16 30 -16 5 0 8 34 8 75 l0 75 -47 30 c-27 16 -52 29 -58 29 -5 0 -30 -13
-55 -28z"/>
<path d="M5230 621 l-45 -27 0 -64 0 -64 49 -29 50 -29 40 23 c65 35 66 37 66
100 l0 59 -47 30 c-27 16 -52 29 -58 29 -5 0 -30 -13 -55 -28z"/>
<path d="M5710 621 l-45 -27 0 -64 0 -63 48 -30 c43 -26 51 -28 73 -17 13 8
24 17 24 21 0 5 -20 20 -45 35 -36 21 -45 31 -45 53 0 36 37 58 69 42 11 -7
21 -21 21 -31 0 -23 1 -24 35 -8 42 19 33 53 -22 88 -27 16 -52 29 -58 29 -5
0 -30 -13 -55 -28z"/>
<path d="M5753 553 c-7 -3 -13 -13 -13 -23 0 -19 17 -30 38 -23 6 3 12 13 12
23 0 19 -17 30 -37 23z"/>
<path d="M5347 410 c-47 -29 -47 -30 -47 -85 0 -48 3 -57 26 -72 25 -16 27
-16 40 2 8 10 14 26 14 34 0 13 2 13 9 3 5 -8 22 -12 42 -10 48 4 48 38 0 51
-25 6 -31 11 -21 17 8 5 22 5 31 -1 26 -13 33 -11 19 7 -8 8 -25 14 -39 12
-35 -4 -36 -40 -2 -48 29 -7 40 -30 14 -30 -27 1 -53 24 -53 48 0 11 -4 24
-10 27 -6 4 -10 -15 -10 -50 0 -48 -3 -56 -17 -53 -15 3 -18 14 -18 61 0 57 1
59 38 80 l38 21 44 -23 c44 -23 45 -24 45 -76 0 -50 -1 -52 -41 -74 -22 -13
-49 -21 -60 -18 -24 7 -25 -10 -1 -18 11 -3 38 6 65 21 l47 26 0 63 0 63 -46
26 c-26 14 -50 26 -53 26 -4 0 -28 -13 -54 -30z"/>
<path d="M1463 373 c-22 -8 -14 -32 12 -39 31 -8 58 2 53 18 -5 14 -47 27 -65
21z"/>
<path d="M1446 262 c-10 -17 12 -33 40 -30 18 2 30 10 32 21 3 13 -4 17 -32
17 -19 0 -37 -4 -40 -8z"/>
<path d="M1483 170 c-27 -11 -30 -28 -7 -37 21 -8 67 14 61 30 -5 16 -26 18
-54 7z"/>
<path d="M1530 75 c-18 -20 -21 -28 -12 -37 10 -10 18 -6 38 14 15 14 23 31
20 37 -11 17 -20 14 -46 -14z"/>
</g>
</svg>
