<svg id="visual" viewBox="0 0 900 600" width="900" height="600" xmlns="http://www.w3.org/2000/svg" xmlns:xlink="http://www.w3.org/1999/xlink" version="1.1"><rect x="0" y="0" width="900" height="600" fill="#ffffff"></rect><path d="M0 484L15 496.8C30 509.7 60 535.3 90 549C120 562.7 150 564.3 180 562.5C210 560.7 240 555.3 270 558.5C300 561.7 330 573.3 360 576.3C390 579.3 420 573.7 450 569.2C480 564.7 510 561.3 540 561.8C570 562.3 600 566.7 630 560.7C660 554.7 690 538.3 720 530.2C750 522 780 522 810 528.5C840 535 870 548 885 554.5L900 561L900 601L885 601C870 601 840 601 810 601C780 601 750 601 720 601C690 601 660 601 630 601C600 601 570 601 540 601C510 601 480 601 450 601C420 601 390 601 360 601C330 601 300 601 270 601C240 601 210 601 180 601C150 601 120 601 90 601C60 601 30 601 15 601L0 601Z" fill="#cccccc"></path><path d="M0 580L15 570.3C30 560.7 60 541.3 90 532.2C120 523 150 524 180 529.7C210 535.3 240 545.7 270 545.8C300 546 330 536 360 535.2C390 534.3 420 542.7 450 551C480 559.3 510 567.7 540 571.2C570 574.7 600 573.3 630 573.2C660 573 690 574 720 578.3C750 582.7 780 590.3 810 581.8C840 573.3 870 548.7 885 536.3L900 524L900 601L885 601C870 601 840 601 810 601C780 601 750 601 720 601C690 601 660 601 630 601C600 601 570 601 540 601C510 601 480 601 450 601C420 601 390 601 360 601C330 601 300 601 270 601C240 601 210 601 180 601C150 601 120 601 90 601C60 601 30 601 15 601L0 601Z" fill="#000000"></path></svg>