<!--?xml version="1.0" encoding="UTF-8"?-->
<svg xmlns="http://www.w3.org/2000/svg" xmlns:xlink="http://www.w3.org/1999/xlink" width="100%" height="100%" viewBox="0 0 419 177" version="1.1">
<g id="surface1">
<path style="stroke: none; fill-rule: nonzero; fill: rgb(0, 0, 0); fill-opacity: 1;" d="M 212.710938 1.304688 C 212.007812 1.453125 209.398438 1.855469 206.941406 2.257812 C 204.433594 2.710938 201.625 3.261719 200.671875 3.511719 C 199.71875 3.8125 198.164062 4.011719 197.207031 4.011719 C 196.253906 4.011719 194.300781 4.363281 192.792969 4.765625 C 191.339844 5.167969 188.832031 5.871094 187.277344 6.320312 C 185.671875 6.773438 182.8125 7.976562 180.855469 8.980469 C 169.464844 15.050781 163.695312 18.460938 161.089844 20.71875 C 160.136719 21.523438 158.480469 22.578125 157.324219 23.078125 C 154.617188 24.230469 153.5625 25.285156 145.886719 34.769531 C 145.234375 35.570312 143.832031 37.226562 142.675781 38.53125 C 140.621094 40.886719 137.960938 45.304688 137.960938 46.355469 C 137.960938 46.65625 136.757812 49.367188 135.25 52.425781 C 129.933594 63.214844 127.925781 69.433594 127.925781 75.40625 C 127.925781 78.113281 127.578125 81.074219 127.175781 82.53125 C 126.574219 84.386719 126.320312 88.300781 126.171875 97.28125 C 126.019531 104.003906 125.769531 110.324219 125.621094 111.277344 C 125.417969 112.230469 125.570312 114.539062 125.921875 116.394531 C 126.472656 119.355469 126.472656 120.105469 125.71875 122.214844 C 125.269531 123.519531 124.917969 125.222656 124.917969 126.027344 C 124.917969 127.683594 124.667969 127.734375 121.855469 126.628906 C 119.75 125.777344 111.523438 125.777344 74.25 126.578125 C 59.296875 126.878906 43.195312 128.386719 34.113281 130.242188 C 30.953125 130.894531 25.785156 131.695312 22.574219 131.996094 C 9.28125 133.203125 3.210938 134.90625 2.660156 137.515625 C 2.507812 138.367188 2.058594 138.972656 1.605469 138.972656 C 1.003906 138.972656 0.953125 139.421875 1.152344 141.078125 C 1.355469 142.734375 1.855469 143.585938 3.3125 144.890625 C 5.917969 147.148438 8.226562 147.75 11.488281 147.046875 C 12.941406 146.746094 15 146.496094 16.105469 146.496094 C 17.15625 146.496094 20.570312 145.792969 23.578125 144.941406 L 29.097656 143.4375 L 45.050781 143.636719 C 54.632812 143.738281 64.414062 144.136719 69.632812 144.640625 C 74.449219 145.140625 78.511719 145.394531 78.714844 145.292969 C 78.863281 145.191406 81.273438 145.644531 84.03125 146.296875 C 86.789062 146.949219 91.503906 147.699219 94.515625 148 C 97.625 148.253906 100.4375 148.804688 101.085938 149.207031 C 102.59375 150.210938 106.957031 151.363281 110.621094 151.816406 C 112.273438 151.964844 114.179688 152.417969 114.882812 152.769531 C 116.289062 153.519531 128.027344 156.730469 131.1875 157.234375 C 132.292969 157.433594 137.910156 159.191406 143.628906 161.144531 C 149.347656 163.050781 154.765625 164.707031 155.671875 164.808594 C 156.574219 164.910156 161.339844 165.960938 166.304688 167.21875 C 179.398438 170.476562 182.109375 171.078125 184.367188 171.078125 C 186.574219 171.128906 188.929688 171.582031 193.144531 172.835938 C 195 173.4375 199.214844 173.839844 205.9375 174.140625 C 221.589844 174.792969 225.203125 174.84375 229.515625 174.191406 C 231.722656 173.890625 235.789062 173.539062 238.546875 173.335938 C 241.304688 173.1875 244.816406 172.886719 246.324219 172.636719 C 247.828125 172.382812 251.238281 171.832031 253.847656 171.382812 C 256.457031 170.980469 261.574219 170.277344 265.136719 169.875 C 268.746094 169.425781 272.910156 168.871094 274.417969 168.570312 C 275.921875 168.269531 279.683594 167.71875 282.746094 167.316406 C 285.753906 166.914062 288.914062 166.363281 289.769531 166.011719 C 290.570312 165.710938 293.582031 165.261719 296.492188 165.007812 C 304.820312 164.40625 309.835938 163.605469 312.394531 162.601562 C 313.75 162.097656 316.40625 161.496094 318.3125 161.296875 C 320.269531 161.097656 322.679688 160.59375 323.78125 160.242188 C 324.835938 159.84375 327.695312 159.539062 330.203125 159.539062 C 334.519531 159.539062 341.941406 157.984375 344.953125 156.480469 C 345.554688 156.179688 349.316406 155.828125 353.230469 155.777344 C 361.707031 155.578125 370.6875 154.875 373.496094 154.121094 C 377.863281 152.96875 381.023438 152.515625 384.9375 152.46875 C 387.195312 152.46875 390.304688 152.214844 391.808594 151.964844 C 393.3125 151.714844 396.875 151.3125 399.734375 151.011719 C 402.59375 150.710938 405.355469 150.257812 405.855469 150.007812 C 406.359375 149.707031 407.710938 149.507812 408.816406 149.507812 C 411.125 149.507812 415.589844 147.652344 417.292969 146.046875 C 418.648438 144.742188 418.800781 141.480469 417.59375 140.277344 C 416.742188 139.371094 413.632812 139.171875 413.128906 140.023438 C 412.878906 140.375 412.527344 140.277344 411.976562 139.824219 C 410.921875 138.871094 404.402344 138.671875 390.554688 139.222656 C 383.882812 139.472656 379.265625 139.371094 376.757812 139.019531 C 374.703125 138.71875 370.738281 138.117188 367.980469 137.71875 C 365.21875 137.265625 359.902344 136.714844 356.191406 136.460938 C 352.476562 136.160156 347.511719 135.609375 345.152344 135.207031 C 342.796875 134.757812 339.636719 134.203125 338.078125 133.953125 C 336.574219 133.652344 331.609375 133.453125 327.042969 133.453125 C 320.570312 133.453125 318.3125 133.601562 316.40625 134.304688 C 314.25 135.058594 313.75 135.109375 311.238281 134.457031 C 308.632812 133.753906 308.378906 133.550781 307.726562 131.695312 C 306.875 129.238281 306.675781 111.527344 307.476562 105.859375 C 308.027344 101.59375 307.328125 78.164062 306.523438 75.253906 C 306.222656 74.300781 306.023438 72.695312 306.023438 71.742188 C 306.023438 70.738281 305.371094 67.828125 304.566406 65.222656 C 303.765625 62.613281 302.863281 59.050781 302.511719 57.34375 C 301.910156 54.382812 300.957031 52.226562 296.191406 43.195312 C 295.136719 41.140625 292.777344 37.878906 291.023438 36.023438 C 289.265625 34.117188 287.460938 31.90625 287.007812 31.105469 C 286.558594 30.253906 284.050781 27.394531 281.390625 24.683594 C 277.679688 20.972656 275.46875 19.214844 272.109375 17.308594 C 269.652344 15.953125 266.839844 14.25 265.839844 13.546875 C 264.886719 12.84375 262.980469 11.789062 261.574219 11.1875 C 260.21875 10.585938 256.859375 9.082031 254.097656 7.828125 C 251.289062 6.574219 247.476562 5.167969 245.570312 4.765625 C 243.613281 4.316406 240.253906 3.363281 238.046875 2.609375 C 234.28125 1.40625 233.378906 1.304688 224 1.203125 C 218.480469 1.152344 213.414062 1.203125 212.710938 1.304688 Z M 237.292969 3.664062 C 239.351562 4.414062 241.558594 5.015625 242.109375 5.015625 C 243.964844 5.015625 249.886719 7.023438 254.097656 9.03125 C 256.304688 10.085938 259.164062 11.386719 260.519531 11.941406 C 261.824219 12.542969 265.234375 14.449219 268.144531 16.253906 C 271.003906 18.113281 273.613281 19.566406 273.863281 19.566406 C 274.71875 19.566406 285.203125 30.152344 286.105469 31.859375 C 286.507812 32.660156 288.164062 34.617188 289.71875 36.121094 C 291.523438 37.878906 293.332031 40.386719 294.785156 43.144531 C 296.039062 45.503906 297.746094 48.613281 298.597656 50.070312 C 300.253906 53.03125 304.015625 67.027344 303.613281 69.035156 C 303.363281 70.4375 302.511719 70.691406 302.511719 69.335938 C 302.511719 68.179688 301.054688 66.125 300.503906 66.476562 C 300.253906 66.625 300.402344 67.527344 300.804688 68.480469 C 301.207031 69.433594 301.507812 71.191406 301.507812 72.445312 C 301.507812 73.699219 301.757812 74.855469 302.058594 75.054688 C 302.863281 75.507812 302.210938 79.066406 300.804688 81.777344 C 300.152344 83.03125 299.5 84.636719 299.300781 85.390625 C 299.097656 86.34375 298.75 86.695312 298.246094 86.492188 C 297.644531 86.242188 297.492188 86.644531 297.59375 88.75 C 297.695312 90.90625 297.492188 91.511719 296.441406 92.613281 L 295.136719 93.917969 L 294.835938 89.703125 C 294.535156 84.988281 293.730469 82.277344 292.679688 82.277344 C 292.125 82.277344 292.074219 82.53125 292.375 83.132812 C 293.027344 84.386719 293.332031 86.59375 293.980469 93.769531 L 294.535156 99.9375 L 293.230469 101.894531 C 291.726562 104.253906 291.171875 104.355469 290.722656 102.347656 C 290.21875 100.140625 289.316406 100.441406 289.617188 102.699219 C 289.867188 105.007812 287.960938 109.519531 286.207031 110.675781 C 285.003906 111.476562 281.390625 111.078125 266.890625 108.617188 C 264.535156 108.21875 258.664062 107.464844 253.847656 106.914062 C 249.03125 106.359375 242.007812 105.558594 238.246094 105.105469 C 216.222656 102.546875 174.683594 102.796875 152.859375 105.65625 C 149.648438 106.058594 146.742188 106.261719 146.488281 106.109375 C 146.1875 105.960938 145.988281 104.050781 145.9375 101.945312 C 145.886719 99.839844 145.738281 97.53125 145.484375 96.828125 C 145.136719 95.675781 145.085938 95.722656 144.734375 97.53125 C 144.53125 98.585938 144.484375 101.09375 144.632812 103.097656 L 144.882812 106.710938 L 141.472656 107.3125 C 136.808594 108.066406 136.355469 108.015625 136.554688 106.960938 C 136.65625 106.511719 137.058594 106.109375 137.460938 106.109375 C 138.0625 106.109375 138.261719 105.15625 138.363281 101.242188 C 138.460938 96.929688 138.414062 96.277344 137.558594 95.773438 C 136.707031 95.222656 136.65625 94.570312 136.808594 87.246094 C 136.90625 81.976562 136.808594 79.269531 136.457031 79.269531 C 136.15625 79.269531 135.953125 80.925781 135.953125 83.382812 C 135.953125 88.652344 135.652344 89.101562 133.546875 87.296875 C 131.941406 85.941406 131.839844 85.742188 132.042969 83.183594 C 132.140625 81.726562 132.441406 80.121094 132.644531 79.621094 C 132.945312 78.96875 132.84375 78.765625 132.042969 78.765625 C 130.035156 78.765625 129.132812 70.339844 130.738281 66.074219 C 131.1875 64.921875 131.890625 62.964844 132.292969 61.710938 C 132.695312 60.453125 134.097656 57.195312 135.453125 54.433594 C 136.808594 51.675781 138.714844 47.710938 139.667969 45.605469 C 142.425781 39.683594 154.214844 25.636719 157.777344 24.082031 C 158.882812 23.628906 160.886719 22.375 162.242188 21.324219 C 165.804688 18.613281 169.066406 16.605469 175.335938 13.296875 C 178.394531 11.691406 181.207031 10.132812 181.605469 9.832031 C 182.910156 8.828125 185.769531 7.675781 188.628906 7.074219 C 190.136719 6.722656 192.09375 6.222656 192.894531 5.921875 C 193.746094 5.667969 195.855469 5.269531 197.660156 5.015625 C 199.464844 4.765625 202.828125 4.214844 205.1875 3.761719 C 213.363281 2.15625 214.515625 2.058594 224 2.207031 C 232.828125 2.359375 233.78125 2.457031 237.292969 3.664062 Z M 121.15625 127.683594 C 122.257812 128.085938 123.914062 128.433594 124.867188 128.433594 C 125.820312 128.433594 128.128906 128.886719 129.984375 129.4375 C 131.890625 130.039062 134.199219 130.542969 135.050781 130.644531 C 135.953125 130.742188 140.871094 132.097656 145.886719 133.652344 C 150.953125 135.207031 157.726562 137.113281 160.9375 137.96875 C 164.199219 138.769531 169.765625 140.226562 173.328125 141.230469 C 199.316406 148.402344 217.828125 152.066406 217.125 149.957031 C 217.023438 149.558594 216.421875 149.207031 215.820312 149.105469 C 214.015625 148.855469 214.566406 148 216.523438 148 C 217.476562 148 218.730469 147.800781 219.234375 147.5 C 219.734375 147.25 221.890625 147 224.046875 146.949219 C 226.457031 146.898438 228.914062 146.546875 230.269531 145.996094 C 231.523438 145.492188 233.429688 144.992188 234.535156 144.789062 C 235.636719 144.640625 240.703125 143.835938 245.820312 143.035156 C 250.9375 142.230469 258.613281 141.179688 262.878906 140.726562 C 267.144531 140.277344 272.710938 139.574219 275.167969 139.171875 C 283.296875 137.816406 290.621094 136.511719 297.242188 135.257812 C 300.855469 134.554688 304.515625 133.953125 305.421875 133.953125 C 307.425781 133.953125 308.78125 135.007812 307.878906 135.910156 C 307.125 136.664062 313.75 136.160156 317.410156 135.15625 C 322.378906 133.804688 336.171875 134.304688 345.152344 136.210938 C 346.960938 136.613281 350.871094 137.066406 353.882812 137.265625 C 358.699219 137.566406 364.21875 138.269531 374.753906 139.972656 C 378.214844 140.476562 390.957031 140.578125 397.328125 140.023438 C 402.945312 139.625 409.820312 139.875 408.816406 140.527344 C 408.414062 140.777344 405.855469 140.976562 403.097656 140.976562 C 400.335938 140.976562 396.726562 141.230469 395.070312 141.480469 C 390.355469 142.28125 382.476562 143.085938 377.613281 143.234375 C 374.550781 143.335938 372.847656 143.636719 371.941406 144.238281 C 370.238281 145.34375 370.6875 145.695312 373.046875 145.042969 C 374.148438 144.789062 378.515625 144.289062 382.777344 143.988281 C 387.042969 143.6875 391.910156 143.234375 393.566406 142.933594 C 396.574219 142.484375 409.46875 141.429688 411.976562 141.480469 C 412.730469 141.480469 413.429688 141.277344 413.632812 140.976562 C 414.035156 140.324219 416.242188 140.324219 416.640625 140.976562 C 416.84375 141.277344 416.84375 141.882812 416.691406 142.332031 C 416.441406 142.933594 416.242188 142.984375 415.640625 142.484375 C 415.238281 142.132812 414.835938 142.03125 414.835938 142.28125 C 414.785156 142.53125 414.734375 143.085938 414.6875 143.488281 C 414.585938 144.539062 411.925781 145.394531 411.375 144.539062 C 411.074219 143.988281 410.871094 144.089844 410.421875 144.941406 C 409.667969 146.347656 407.710938 146.296875 406.707031 144.890625 L 405.90625 143.738281 L 405.90625 144.839844 C 405.855469 145.742188 405.554688 145.996094 404.652344 145.996094 C 403.949219 145.996094 403.246094 145.742188 403.097656 145.441406 C 402.847656 145.09375 402.546875 145.191406 402.195312 145.695312 C 401.542969 146.496094 395.472656 147.5 391.007812 147.5 C 388.898438 147.5 388.195312 147.300781 387.945312 146.648438 C 387.695312 145.945312 387.542969 145.996094 387.242188 146.898438 C 386.992188 147.5 386.390625 148 385.839844 148 C 385.289062 148 384.484375 148.152344 384.03125 148.300781 C 383.480469 148.554688 383.128906 148.300781 382.929688 147.550781 C 382.578125 146.195312 381.875 146.195312 381.675781 147.601562 C 381.476562 148.953125 378.917969 149.457031 378.464844 148.253906 C 378.0625 147.25 377.410156 147.300781 377.058594 148.402344 C 376.808594 149.15625 375.957031 149.257812 370.136719 149.355469 C 366.324219 149.457031 363.414062 149.304688 363.214844 149.003906 C 363.011719 148.703125 362.210938 148.753906 361.007812 149.105469 C 359.351562 149.65625 359 149.605469 358.449219 148.855469 C 357.84375 148.050781 357.796875 148.050781 357.542969 148.953125 C 357.195312 150.308594 353.28125 150.960938 352.425781 149.808594 C 351.625 148.703125 351.171875 148.804688 351.171875 150.007812 C 351.171875 150.863281 350.820312 151.011719 349.066406 151.011719 C 347.863281 151.011719 346.609375 150.660156 346.054688 150.160156 C 345.203125 149.40625 345.152344 149.40625 345.152344 150.410156 C 345.152344 151.261719 344.75 151.464844 342.796875 151.765625 C 341.441406 151.914062 340.1875 152.066406 339.886719 152.117188 C 339.636719 152.117188 338.832031 152.367188 338.128906 152.617188 C 337.027344 153.070312 334.769531 153.519531 329.851562 154.324219 C 329.050781 154.472656 326.339844 154.925781 323.832031 155.328125 C 316.40625 156.582031 315.703125 156.632812 315.304688 156.078125 C 314.800781 155.226562 314.050781 155.425781 314.050781 156.429688 C 314.050781 157.382812 313.648438 157.535156 309.683594 157.734375 C 308.128906 157.835938 306.726562 158.238281 306.273438 158.738281 C 305.320312 159.691406 302.460938 159.792969 301.609375 158.9375 C 301.15625 158.488281 300.957031 158.539062 300.753906 159.140625 C 300.554688 159.640625 299.703125 159.890625 298.296875 159.941406 C 297.09375 159.992188 294.683594 160.492188 292.929688 161.046875 C 291.171875 161.648438 287.160156 162.402344 284 162.851562 C 280.886719 163.253906 277.929688 163.753906 277.476562 164.007812 C 275.421875 165.109375 262.476562 166.816406 263.378906 165.914062 C 264.234375 165.007812 271.207031 162.953125 274.167969 162.703125 C 276.121094 162.550781 279.03125 161.898438 280.6875 161.296875 C 282.34375 160.695312 287.308594 159.339844 291.726562 158.285156 C 301.054688 156.128906 301.757812 155.929688 300.003906 155.675781 C 299.300781 155.578125 296.039062 156.179688 292.726562 157.03125 C 289.417969 157.933594 285.703125 158.839844 284.449219 159.089844 C 283.195312 159.339844 281.289062 159.890625 280.1875 160.292969 C 279.082031 160.695312 276.472656 161.246094 274.417969 161.546875 C 272.359375 161.796875 268.746094 162.601562 266.390625 163.355469 C 263.230469 164.308594 260.269531 164.757812 254.851562 165.160156 C 250.839844 165.410156 246.722656 165.863281 245.722656 166.113281 C 243.363281 166.714844 243.113281 167.867188 245.46875 167.316406 C 248.328125 166.714844 254.5 166.113281 258.363281 166.113281 L 262.125 166.113281 L 260.371094 167.066406 C 259.417969 167.566406 258.261719 167.917969 257.8125 167.769531 C 257.359375 167.667969 256.859375 167.867188 256.65625 168.320312 C 256.304688 169.222656 254.5 169.324219 254.199219 168.421875 C 254.050781 167.96875 253.847656 167.96875 253.296875 168.421875 C 252.445312 169.074219 248.832031 169.125 247.980469 168.421875 C 247.527344 168.121094 247.125 168.121094 246.722656 168.421875 C 245.46875 169.375 243.464844 169.675781 234.28125 170.125 C 229.164062 170.378906 223.847656 170.679688 222.441406 170.878906 C 220.035156 171.179688 219.835938 171.128906 219.535156 170.027344 L 219.183594 168.824219 L 218.628906 169.976562 C 217.976562 171.28125 216.472656 171.429688 216.023438 170.277344 C 215.769531 169.625 215.570312 169.574219 215.019531 170.027344 C 214.214844 170.730469 211.957031 170.027344 211.605469 168.972656 C 211.40625 168.472656 211.207031 168.472656 210.652344 168.921875 C 209.652344 169.726562 207.394531 169.171875 206.789062 167.917969 L 206.238281 166.816406 L 205.886719 167.917969 C 205.636719 168.824219 205.1875 169.074219 203.882812 169.074219 C 202.878906 169.074219 202.023438 168.773438 201.773438 168.269531 C 201.472656 167.71875 201.171875 167.617188 200.972656 167.96875 C 200.621094 168.519531 198.011719 167.867188 196.757812 166.914062 C 196.40625 166.664062 195.351562 166.363281 194.347656 166.3125 C 193.347656 166.261719 192.34375 165.914062 192.140625 165.5625 C 191.890625 165.160156 191.488281 165.109375 191.089844 165.359375 C 189.484375 166.3125 181.003906 165.359375 177.191406 163.753906 C 176.136719 163.355469 174.230469 162.902344 172.828125 162.800781 C 169.71875 162.601562 167.8125 161.898438 167.359375 160.746094 C 167.058594 159.941406 167.007812 159.941406 166.40625 160.796875 C 165.402344 162.097656 163.847656 161.546875 163.496094 159.792969 C 163.195312 158.238281 162.996094 158.4375 162.242188 160.894531 C 162.140625 161.347656 161.640625 161.296875 160.183594 160.746094 C 158.027344 159.84375 157.527344 159.289062 157.527344 157.632812 C 157.527344 156.28125 156.722656 156.179688 156.371094 157.484375 C 156.171875 158.335938 155.871094 158.386719 153.714844 157.984375 C 152.359375 157.734375 150.804688 157.332031 150.253906 157.082031 C 149.699219 156.882812 148.695312 156.429688 147.996094 156.128906 C 147.292969 155.777344 146.1875 155.425781 145.484375 155.328125 C 144.785156 155.175781 142.578125 154.675781 140.519531 154.273438 C 138.460938 153.820312 136.40625 153.570312 135.855469 153.671875 C 135.351562 153.820312 135.050781 153.722656 135.203125 153.519531 C 135.351562 153.269531 134.75 152.96875 133.898438 152.769531 C 133.042969 152.566406 130.835938 151.664062 129.03125 150.761719 C 125.367188 148.953125 122.007812 147.902344 121.304688 148.300781 C 121.105469 148.453125 120.902344 148.300781 120.902344 148.050781 C 120.902344 147.449219 119.601562 147.300781 119.25 147.851562 C 119.148438 148.101562 119.148438 148 119.199219 147.652344 C 119.398438 146.847656 118.597656 146.648438 112.175781 145.742188 C 111.070312 145.59375 109.96875 145.292969 109.667969 145.042969 C 109.367188 144.839844 108.363281 144.640625 107.460938 144.640625 C 106.507812 144.640625 105.550781 144.339844 105.351562 143.988281 C 105.050781 143.488281 104.75 143.4375 104.25 143.886719 C 103.847656 144.1875 103.042969 144.289062 102.390625 144.136719 C 101.390625 143.886719 101.238281 143.585938 101.488281 141.929688 C 101.738281 140.125 101.085938 139.171875 100.585938 140.578125 C 100.484375 140.925781 100.132812 141.832031 99.832031 142.632812 L 99.332031 143.988281 L 97.476562 143.183594 C 93.511719 141.429688 90 140.476562 88.597656 140.675781 C 87.742188 140.828125 86.789062 140.675781 86.4375 140.375 C 85.988281 140.023438 85.585938 140.023438 84.984375 140.527344 C 84.332031 141.027344 84.132812 141.027344 83.78125 140.527344 C 83.480469 140.023438 83.128906 140.125 82.324219 140.925781 C 80.96875 142.28125 80.269531 141.882812 80.269531 139.824219 C 80.269531 137.066406 80.820312 136.714844 83.980469 137.265625 C 87.140625 137.867188 88.847656 137.367188 86.640625 136.511719 C 85.835938 136.210938 84.582031 135.960938 83.78125 135.960938 C 82.976562 135.960938 81.171875 135.507812 79.816406 134.957031 C 77.007812 133.855469 76.90625 133.855469 64.214844 134.105469 C 59.097656 134.203125 53.980469 134.554688 52.828125 134.90625 C 50.167969 135.660156 43.445312 136.414062 34.363281 136.964844 C 30.5 137.214844 25.636719 137.765625 23.578125 138.117188 L 19.816406 138.820312 L 23.328125 138.921875 C 25.285156 138.921875 28.09375 138.621094 29.597656 138.21875 C 31.65625 137.617188 33.5625 137.515625 37.023438 137.765625 C 39.53125 137.917969 41.640625 138.269531 41.640625 138.417969 C 41.640625 138.621094 40.335938 139.222656 38.78125 139.722656 C 35.269531 140.828125 20.066406 141.277344 19.464844 140.277344 C 19.214844 139.925781 18.863281 140.023438 18.410156 140.675781 C 17.859375 141.429688 17.359375 141.578125 16.152344 141.328125 C 15.152344 141.128906 14.546875 141.230469 14.546875 141.53125 C 14.546875 142.433594 9.53125 141.679688 8.828125 140.675781 C 8.226562 139.925781 8.175781 139.925781 7.875 140.675781 C 7.523438 141.628906 6.523438 141.679688 3.863281 140.925781 C 2.058594 140.425781 2.007812 140.375 2.859375 139.722656 C 3.5625 139.171875 4.867188 139.070312 8.730469 139.324219 C 15 139.722656 15.050781 138.769531 8.78125 138.21875 C 6.421875 138.019531 4.414062 137.667969 4.265625 137.464844 C 3.460938 136.160156 9.984375 134.203125 16.804688 133.753906 C 20.96875 133.453125 30.300781 132.148438 34.414062 131.246094 C 43.996094 129.1875 66.371094 127.382812 81.421875 127.480469 C 87.441406 127.53125 92.507812 127.433594 92.660156 127.230469 C 92.859375 127.082031 98.878906 126.929688 106.054688 126.929688 C 116.136719 126.980469 119.601562 127.132812 121.15625 127.683594 Z M 77.410156 135.257812 L 79.316406 135.558594 L 79.164062 138.621094 C 79.0625 141.078125 78.863281 141.679688 78.261719 141.53125 C 77.859375 141.429688 76.757812 141.277344 75.804688 141.230469 C 74.851562 141.179688 73.796875 140.726562 73.496094 140.277344 C 73.144531 139.824219 72.390625 139.472656 71.789062 139.472656 C 71.238281 139.472656 70.738281 139.273438 70.738281 139.019531 C 70.738281 138.417969 66.019531 138.71875 62.207031 139.574219 C 58.394531 140.375 49.015625 140.023438 48.0625 139.070312 C 47.757812 138.769531 46.707031 138.671875 45.652344 138.820312 C 43.796875 139.070312 42.59375 138.320312 43.445312 137.464844 C 43.695312 137.214844 46.152344 136.761719 48.914062 136.460938 C 51.671875 136.160156 55.085938 135.710938 56.4375 135.507812 C 59.550781 135.058594 74.800781 134.855469 77.410156 135.257812 Z M 77.410156 135.257812 " class="svg-elem-1"></path>
<path style="stroke: none; fill-rule: nonzero; fill: rgb(0, 0, 0); fill-opacity: 1;" d="M 182.359375 22.625 C 180.152344 25.636719 179.601562 27.09375 180.601562 27.09375 C 180.90625 27.09375 181.105469 26.890625 181.105469 26.640625 C 181.105469 26.390625 182.109375 24.835938 183.363281 23.179688 C 185.71875 20.066406 185.972656 19.566406 185.117188 19.566406 C 184.816406 19.566406 183.613281 20.921875 182.359375 22.625 Z M 182.359375 22.625 " class="svg-elem-2"></path>
<path style="stroke: none; fill-rule: nonzero; fill: rgb(0, 0, 0); fill-opacity: 1;" d="M 251.539062 21.121094 C 251.742188 21.773438 252.34375 23.980469 252.84375 26.039062 C 254 30.300781 254.351562 30.953125 254.351562 28.746094 C 254.351562 26.789062 252.492188 20.71875 251.742188 20.269531 C 251.339844 20.019531 251.289062 20.269531 251.539062 21.121094 Z M 251.539062 21.121094 " class="svg-elem-3"></path>
<path style="stroke: none; fill-rule: nonzero; fill: rgb(0, 0, 0); fill-opacity: 1;" d="M 179.199219 21.925781 C 177.792969 23.980469 176.488281 26.589844 176.941406 26.589844 C 177.191406 26.589844 177.84375 25.738281 178.496094 24.683594 C 179.097656 23.679688 179.953125 22.324219 180.402344 21.671875 C 180.855469 21.070312 181.003906 20.570312 180.703125 20.570312 C 180.402344 20.570312 179.75 21.171875 179.199219 21.925781 Z M 179.199219 21.925781 " class="svg-elem-4"></path>
<path style="stroke: none; fill-rule: nonzero; fill: rgb(0, 0, 0); fill-opacity: 1;" d="M 188.179688 21.972656 C 187.578125 22.878906 187.125 23.980469 187.226562 24.433594 C 187.324219 25.085938 187.675781 24.785156 188.53125 23.378906 C 189.984375 20.921875 189.683594 19.867188 188.179688 21.972656 Z M 188.179688 21.972656 " class="svg-elem-5"></path>
<path style="stroke: none; fill-rule: nonzero; fill: rgb(0, 0, 0); fill-opacity: 1;" d="M 191.390625 22.625 C 190.183594 24.882812 190.738281 25.585938 192.042969 23.480469 C 193.246094 21.523438 193.394531 21.070312 192.644531 21.070312 C 192.394531 21.070312 191.789062 21.773438 191.390625 22.625 Z M 191.390625 22.625 " class="svg-elem-6"></path>
<path style="stroke: none; fill-rule: nonzero; fill: rgb(0, 0, 0); fill-opacity: 1;" d="M 268.847656 23.480469 C 269.351562 24.53125 270.203125 26.640625 270.65625 28.246094 C 271.40625 30.90625 272.410156 32.511719 272.410156 31.003906 C 272.359375 28.046875 269.699219 21.574219 268.597656 21.574219 C 267.996094 21.574219 268.097656 21.972656 268.847656 23.480469 Z M 268.847656 23.480469 " class="svg-elem-7"></path>
<path style="stroke: none; fill-rule: nonzero; fill: rgb(0, 0, 0); fill-opacity: 1;" d="M 258.164062 26.390625 C 259.367188 28.746094 260.421875 30.953125 260.519531 31.304688 C 260.621094 31.605469 260.921875 31.707031 261.121094 31.507812 C 261.574219 31.054688 257.308594 22.425781 256.558594 22.175781 C 256.207031 22.125 256.957031 23.980469 258.164062 26.390625 Z M 258.164062 26.390625 " class="svg-elem-8"></path>
<path style="stroke: none; fill-rule: nonzero; fill: rgb(0, 0, 0); fill-opacity: 1;" d="M 262.074219 22.925781 C 264.484375 29.449219 265.136719 30.804688 265.285156 29.5 C 265.488281 27.996094 263.027344 22.074219 262.277344 22.074219 C 261.976562 22.074219 261.925781 22.476562 262.074219 22.925781 Z M 262.074219 22.925781 " class="svg-elem-9"></path>
<path style="stroke: none; fill-rule: nonzero; fill: rgb(0, 0, 0); fill-opacity: 1;" d="M 273.414062 25.085938 C 273.414062 26.238281 274.667969 30.101562 275.019531 30.101562 C 275.570312 30.101562 275.519531 28.796875 274.816406 26.539062 C 274.316406 24.785156 273.414062 23.832031 273.414062 25.085938 Z M 273.414062 25.085938 " class="svg-elem-10"></path>
<path style="stroke: none; fill-rule: nonzero; fill: rgb(0, 0, 0); fill-opacity: 1;" d="M 277.425781 25.085938 C 277.425781 25.386719 278.128906 27.042969 279.03125 28.746094 C 281.039062 32.660156 281.640625 31.304688 279.683594 27.292969 C 278.480469 24.835938 277.425781 23.78125 277.425781 25.085938 Z M 277.425781 25.085938 " class="svg-elem-11"></path>
<path style="stroke: none; fill-rule: nonzero; fill: rgb(0, 0, 0); fill-opacity: 1;" d="M 264.886719 36.976562 C 264.886719 37.226562 265.085938 38.179688 265.335938 39.132812 C 265.585938 40.085938 265.9375 41.539062 266.089844 42.292969 C 266.289062 43.046875 266.640625 43.546875 266.839844 43.398438 C 267.09375 43.246094 267.191406 42.644531 267.042969 41.992188 C 266.390625 38.632812 265.6875 36.625 265.335938 36.625 C 265.085938 36.625 264.886719 36.773438 264.886719 36.976562 Z M 264.886719 36.976562 " class="svg-elem-12"></path>
<path style="stroke: none; fill-rule: nonzero; fill: rgb(0, 0, 0); fill-opacity: 1;" d="M 266.890625 37.027344 C 266.890625 37.328125 267.34375 38.328125 267.84375 39.234375 C 268.398438 40.136719 269.097656 41.84375 269.449219 42.996094 C 269.800781 44.199219 270.253906 45.152344 270.503906 45.152344 C 271.105469 45.152344 270.554688 42.492188 269.449219 39.886719 C 268.546875 37.878906 266.890625 36.023438 266.890625 37.027344 Z M 266.890625 37.027344 " class="svg-elem-13"></path>
<path style="stroke: none; fill-rule: nonzero; fill: rgb(0, 0, 0); fill-opacity: 1;" d="M 280.9375 36.925781 C 280.9375 37.226562 281.339844 38.679688 281.890625 40.1875 C 282.394531 41.742188 282.996094 43.898438 283.195312 45.050781 C 283.398438 46.207031 283.796875 47.308594 284.050781 47.511719 C 285.253906 48.214844 283.195312 39.332031 281.742188 37.375 C 281.289062 36.824219 280.9375 36.625 280.9375 36.925781 Z M 280.9375 36.925781 " class="svg-elem-14"></path>
<path style="stroke: none; fill-rule: nonzero; fill: rgb(0, 0, 0); fill-opacity: 1;" d="M 278.179688 39.132812 C 278.378906 39.835938 278.632812 40.988281 278.78125 41.792969 C 278.933594 42.542969 279.28125 43.296875 279.585938 43.496094 C 280.4375 44 279.585938 39.585938 278.632812 38.679688 C 277.878906 37.929688 277.828125 37.980469 278.179688 39.132812 Z M 278.179688 39.132812 " class="svg-elem-15"></path>
<path style="stroke: none; fill-rule: nonzero; fill: rgb(0, 0, 0); fill-opacity: 1;" d="M 170.46875 40.886719 C 168.363281 44.25 167.058594 47.058594 167.058594 48.261719 C 167.058594 49.015625 167.960938 47.710938 169.617188 44.703125 C 172.175781 39.933594 172.777344 37.226562 170.46875 40.886719 Z M 170.46875 40.886719 " class="svg-elem-16"></path>
<path style="stroke: none; fill-rule: nonzero; fill: rgb(0, 0, 0); fill-opacity: 1;" d="M 176.1875 40.488281 C 174.332031 43.097656 171.625 49.667969 172.425781 49.667969 C 172.929688 49.667969 177.792969 39.683594 177.441406 39.332031 C 177.292969 39.183594 176.742188 39.683594 176.1875 40.488281 Z M 176.1875 40.488281 " class="svg-elem-17"></path>
<path style="stroke: none; fill-rule: nonzero; fill: rgb(0, 0, 0); fill-opacity: 1;" d="M 179.398438 42.242188 C 177.945312 44.75 176.992188 48.566406 177.996094 47.960938 C 178.347656 47.761719 178.597656 47.308594 178.597656 47.007812 C 178.597656 46.65625 179.199219 45.203125 179.851562 43.699219 C 181.507812 40.1875 181.207031 39.234375 179.398438 42.242188 Z M 179.398438 42.242188 " class="svg-elem-18"></path>
<path style="stroke: none; fill-rule: nonzero; fill: rgb(0, 0, 0); fill-opacity: 1;" d="M 182.960938 41.84375 C 181.808594 44.5 181.40625 46.15625 181.90625 46.15625 C 182.558594 46.15625 184.214844 41.84375 184.015625 40.789062 C 183.863281 40.136719 183.5625 40.4375 182.960938 41.84375 Z M 182.960938 41.84375 " class="svg-elem-19"></path>
<path style="stroke: none; fill-rule: nonzero; fill: rgb(0, 0, 0); fill-opacity: 1;" d="M 253.546875 41.890625 C 253.746094 42.445312 254.550781 44.703125 255.253906 46.910156 C 256.15625 49.566406 256.65625 50.519531 256.757812 49.769531 C 257.007812 48.261719 255.003906 42.394531 254 41.539062 C 253.246094 40.988281 253.195312 40.988281 253.546875 41.890625 Z M 253.546875 41.890625 " class="svg-elem-20"></path>
<path style="stroke: none; fill-rule: nonzero; fill: rgb(0, 0, 0); fill-opacity: 1;" d="M 258.210938 43.75 C 258.964844 44.953125 259.917969 46.910156 260.421875 48.164062 C 261.523438 51.074219 262.628906 51.523438 261.625 48.664062 C 260.46875 45.402344 258.261719 41.640625 257.511719 41.640625 C 257.058594 41.640625 257.257812 42.292969 258.210938 43.75 Z M 258.210938 43.75 " class="svg-elem-21"></path>
<path style="stroke: none; fill-rule: nonzero; fill: rgb(0, 0, 0); fill-opacity: 1;" d="M 285.957031 41.84375 C 285.957031 42.59375 288.0625 48.867188 288.5625 49.367188 C 289.71875 50.722656 288.011719 44.050781 286.757812 42.394531 C 286.304688 41.84375 285.957031 41.589844 285.957031 41.84375 Z M 285.957031 41.84375 " class="svg-elem-22"></path>
<path style="stroke: none; fill-rule: nonzero; fill: rgb(0, 0, 0); fill-opacity: 1;" d="M 163.394531 45.152344 C 162.945312 45.855469 162.542969 46.859375 162.542969 47.410156 C 162.542969 48.214844 162.742188 48.0625 163.597656 46.707031 C 164.800781 44.75 164.601562 43.398438 163.394531 45.152344 Z M 163.394531 45.152344 " class="svg-elem-23"></path>
<path style="stroke: none; fill-rule: nonzero; fill: rgb(0, 0, 0); fill-opacity: 1;" d="M 201.023438 57.445312 C 200.269531 61.257812 200.117188 63.113281 200.570312 63.414062 C 200.871094 63.617188 201.222656 62.410156 201.421875 60.503906 C 201.824219 57.042969 201.523438 54.9375 201.023438 57.445312 Z M 201.023438 57.445312 " class="svg-elem-24"></path>
<path style="stroke: none; fill-rule: nonzero; fill: rgb(0, 0, 0); fill-opacity: 1;" d="M 152.558594 60.957031 C 149.5 67.480469 149.449219 69.535156 152.507812 63.265625 C 153.914062 60.40625 154.96875 57.695312 154.867188 57.242188 C 154.765625 56.792969 153.765625 58.398438 152.558594 60.957031 Z M 152.558594 60.957031 " class="svg-elem-25"></path>
<path style="stroke: none; fill-rule: nonzero; fill: rgb(0, 0, 0); fill-opacity: 1;" d="M 160.136719 57.695312 C 158.128906 62.761719 157.425781 66.726562 158.53125 66.726562 C 158.832031 66.726562 159.03125 66.273438 159.03125 65.671875 C 159.03125 65.121094 159.484375 63.0625 160.085938 61.15625 C 161.089844 57.796875 161.1875 55.1875 160.136719 57.695312 Z M 160.136719 57.695312 " class="svg-elem-26"></path>
<path style="stroke: none; fill-rule: nonzero; fill: rgb(0, 0, 0); fill-opacity: 1;" d="M 149.648438 57.945312 C 148.597656 60.003906 146.640625 65.972656 146.839844 66.574219 C 147.191406 67.527344 147.792969 67.328125 147.84375 66.273438 C 147.894531 65.722656 148.496094 63.664062 149.25 61.660156 C 150.503906 58.199219 150.753906 55.839844 149.648438 57.945312 Z M 149.648438 57.945312 " class="svg-elem-27"></path>
<path style="stroke: none; fill-rule: nonzero; fill: rgb(0, 0, 0); fill-opacity: 1;" d="M 164.199219 57.796875 C 163.246094 59.050781 162.042969 62.761719 162.089844 64.367188 C 162.089844 66.175781 162.191406 66.074219 163.949219 60.757812 C 165.050781 57.496094 165.101562 56.59375 164.199219 57.796875 Z M 164.199219 57.796875 " class="svg-elem-28"></path>
<path style="stroke: none; fill-rule: nonzero; fill: rgb(0, 0, 0); fill-opacity: 1;" d="M 281.640625 58.546875 C 281.839844 59.351562 282.191406 62.460938 282.542969 65.574219 C 282.894531 69.035156 283.296875 71.089844 283.597656 70.890625 C 284.351562 70.4375 283.699219 61.257812 282.792969 59.050781 C 281.839844 56.894531 281.191406 56.59375 281.640625 58.546875 Z M 281.640625 58.546875 " class="svg-elem-29"></path>
<path style="stroke: none; fill-rule: nonzero; fill: rgb(0, 0, 0); fill-opacity: 1;" d="M 174.632812 58.800781 C 172.625 64.21875 172.023438 66.222656 172.175781 67.027344 C 172.277344 67.78125 173.179688 65.722656 175.9375 58.296875 C 176.089844 57.996094 175.9375 57.695312 175.636719 57.695312 C 175.335938 57.695312 174.882812 58.199219 174.632812 58.800781 Z M 174.632812 58.800781 " class="svg-elem-30"></path>
<path style="stroke: none; fill-rule: nonzero; fill: rgb(0, 0, 0); fill-opacity: 1;" d="M 187.425781 58.449219 C 187.277344 58.898438 187.125 59.902344 187.125 60.605469 C 187.175781 61.910156 187.175781 61.910156 187.929688 60.253906 C 188.328125 59.25 188.480469 58.347656 188.230469 58.097656 C 187.929688 57.796875 187.625 57.945312 187.425781 58.449219 Z M 187.425781 58.449219 " class="svg-elem-31"></path>
<path style="stroke: none; fill-rule: nonzero; fill: rgb(0, 0, 0); fill-opacity: 1;" d="M 191.089844 58.800781 C 191.089844 59.453125 190.988281 60.554688 190.886719 61.308594 C 190.789062 62.109375 190.9375 62.710938 191.1875 62.710938 C 191.441406 62.710938 191.640625 62.3125 191.640625 61.757812 C 191.640625 61.257812 191.789062 60.105469 191.941406 59.25 C 192.140625 58.246094 192.09375 57.695312 191.691406 57.695312 C 191.390625 57.695312 191.136719 58.199219 191.089844 58.800781 Z M 191.089844 58.800781 " class="svg-elem-32"></path>
<path style="stroke: none; fill-rule: nonzero; fill: rgb(0, 0, 0); fill-opacity: 1;" d="M 170.066406 61.257812 C 169.214844 63.0625 168.5625 65.222656 168.613281 66.222656 L 168.664062 67.980469 L 169.113281 66.476562 C 169.417969 65.621094 170.21875 63.566406 170.921875 61.808594 C 172.625 57.59375 172.023438 57.195312 170.066406 61.257812 Z M 170.066406 61.257812 " class="svg-elem-33"></path>
<path style="stroke: none; fill-rule: nonzero; fill: rgb(0, 0, 0); fill-opacity: 1;" d="M 268.296875 58.449219 C 268.144531 58.597656 268.195312 59.5 268.398438 60.355469 C 268.648438 61.257812 269 63.363281 269.148438 65.121094 C 269.652344 69.835938 270.65625 69.785156 270.253906 65.070312 C 269.902344 61.257812 268.949219 57.847656 268.296875 58.449219 Z M 268.296875 58.449219 " class="svg-elem-34"></path>
<path style="stroke: none; fill-rule: nonzero; fill: rgb(0, 0, 0); fill-opacity: 1;" d="M 276.273438 63.816406 C 276.523438 70.4375 277.027344 72.246094 277.425781 67.980469 C 277.726562 64.46875 277.226562 59.300781 276.523438 58.597656 C 276.222656 58.296875 276.121094 60.105469 276.273438 63.816406 Z M 276.273438 63.816406 " class="svg-elem-35"></path>
<path style="stroke: none; fill-rule: nonzero; fill: rgb(0, 0, 0); fill-opacity: 1;" d="M 144.082031 60.054688 C 142.375 62.5625 139.96875 67.175781 139.96875 67.980469 C 139.96875 69.433594 140.820312 68.734375 141.671875 66.574219 C 142.074219 65.421875 143.277344 63.265625 144.230469 61.808594 C 146.136719 58.898438 146.238281 58.699219 145.535156 58.699219 C 145.285156 58.699219 144.632812 59.300781 144.082031 60.054688 Z M 144.082031 60.054688 " class="svg-elem-36"></path>
<path style="stroke: none; fill-rule: nonzero; fill: rgb(0, 0, 0); fill-opacity: 1;" d="M 285.605469 59.402344 C 285.804688 59.851562 286.207031 62.761719 286.507812 65.875 C 286.859375 68.984375 287.308594 71.691406 287.5625 71.992188 C 288.164062 72.695312 287.960938 64.367188 287.308594 61.507812 C 286.957031 60.152344 286.40625 58.949219 286.003906 58.800781 C 285.503906 58.648438 285.402344 58.800781 285.605469 59.402344 Z M 285.605469 59.402344 " class="svg-elem-37"></path>
<path style="stroke: none; fill-rule: nonzero; fill: rgb(0, 0, 0); fill-opacity: 1;" d="M 263.582031 60.054688 C 264.433594 62.863281 265.386719 67.078125 265.386719 68.082031 C 265.386719 68.683594 265.636719 69.335938 265.886719 69.484375 C 266.890625 70.136719 266.1875 63.96875 264.835938 60.554688 C 264.234375 59.101562 263.128906 58.648438 263.582031 60.054688 Z M 263.582031 60.054688 " class="svg-elem-38"></path>
<path style="stroke: none; fill-rule: nonzero; fill: rgb(0, 0, 0); fill-opacity: 1;" d="M 218.730469 63.96875 C 218.730469 66.476562 218.929688 68.230469 219.234375 68.230469 C 219.535156 68.230469 219.734375 66.476562 219.734375 63.96875 C 219.734375 61.457031 219.535156 59.703125 219.234375 59.703125 C 218.929688 59.703125 218.730469 61.457031 218.730469 63.96875 Z M 218.730469 63.96875 " class="svg-elem-39"></path>
<path style="stroke: none; fill-rule: nonzero; fill: rgb(0, 0, 0); fill-opacity: 1;" d="M 250.886719 61.058594 C 250.9375 61.808594 251.140625 63.011719 251.339844 63.714844 C 251.691406 64.71875 251.742188 64.519531 251.792969 62.613281 C 251.839844 61.308594 251.640625 60.105469 251.339844 59.953125 C 251.039062 59.753906 250.839844 60.253906 250.886719 61.058594 Z M 250.886719 61.058594 " class="svg-elem-40"></path>
<path style="stroke: none; fill-rule: nonzero; fill: rgb(0, 0, 0); fill-opacity: 1;" d="M 195.90625 61.308594 C 195.152344 64.570312 194.800781 67.277344 195.203125 67.480469 C 195.402344 67.628906 195.855469 66.425781 196.15625 64.871094 C 196.457031 63.265625 196.859375 61.558594 196.957031 61.058594 C 197.109375 60.605469 197.007812 60.203125 196.707031 60.203125 C 196.40625 60.203125 196.054688 60.707031 195.90625 61.308594 Z M 195.90625 61.308594 " class="svg-elem-41"></path>
<path style="stroke: none; fill-rule: nonzero; fill: rgb(0, 0, 0); fill-opacity: 1;" d="M 258.363281 60.707031 C 258.363281 61.960938 260.019531 67.730469 260.371094 67.730469 C 260.820312 67.730469 260.769531 67.578125 259.867188 63.316406 C 259.316406 61.007812 258.363281 59.25 258.363281 60.707031 Z M 258.363281 60.707031 " class="svg-elem-42"></path>
<path style="stroke: none; fill-rule: nonzero; fill: rgb(0, 0, 0); fill-opacity: 1;" d="M 214.71875 62.914062 C 214.71875 64.167969 214.96875 65.320312 215.21875 65.472656 C 215.519531 65.671875 215.722656 64.820312 215.722656 63.265625 C 215.722656 61.859375 215.519531 60.707031 215.21875 60.707031 C 214.96875 60.707031 214.71875 61.710938 214.71875 62.914062 Z M 214.71875 62.914062 " class="svg-elem-43"></path>
<path style="stroke: none; fill-rule: nonzero; fill: rgb(0, 0, 0); fill-opacity: 1;" d="M 291.675781 63.011719 C 291.824219 64.066406 292.125 66.273438 292.328125 67.828125 C 292.476562 69.433594 292.828125 70.738281 293.027344 70.738281 C 293.679688 70.738281 293.582031 66.574219 292.929688 63.917969 C 292.175781 61.058594 291.171875 60.304688 291.675781 63.011719 Z M 291.675781 63.011719 " class="svg-elem-44"></path>
<path style="stroke: none; fill-rule: nonzero; fill: rgb(0, 0, 0); fill-opacity: 1;" d="M 139.066406 62.363281 C 137.859375 63.765625 136.457031 67.578125 136.507812 69.234375 C 136.554688 70.289062 136.65625 70.589844 136.808594 69.988281 C 136.957031 69.433594 137.710938 67.429688 138.5625 65.574219 C 140.019531 62.210938 140.21875 60.957031 139.066406 62.363281 Z M 139.066406 62.363281 " class="svg-elem-45"></path>
<path style="stroke: none; fill-rule: nonzero; fill: rgb(0, 0, 0); fill-opacity: 1;" d="M 296.890625 62.460938 C 296.691406 62.664062 296.640625 63.515625 296.792969 64.367188 C 296.890625 65.269531 297.09375 67.480469 297.292969 69.335938 C 297.445312 71.242188 297.796875 72.746094 298.097656 72.746094 C 298.445312 72.746094 298.546875 71.34375 298.296875 68.433594 C 297.945312 64.015625 297.445312 61.910156 296.890625 62.460938 Z M 296.890625 62.460938 " class="svg-elem-46"></path>
<path style="stroke: none; fill-rule: nonzero; fill: rgb(0, 0, 0); fill-opacity: 1;" d="M 157.074219 74.601562 C 156.273438 77.8125 155.519531 82.378906 155.519531 84.335938 C 155.519531 87.648438 156.371094 86.894531 156.722656 83.28125 C 156.875 81.375 157.375 78.367188 157.777344 76.660156 C 158.679688 72.898438 158.679688 72.746094 158.027344 72.746094 C 157.777344 72.746094 157.324219 73.597656 157.074219 74.601562 Z M 157.074219 74.601562 " class="svg-elem-47"></path>
<path style="stroke: none; fill-rule: nonzero; fill: rgb(0, 0, 0); fill-opacity: 1;" d="M 150.101562 74.101562 C 149.25 75.757812 148.496094 81.527344 148.546875 86.09375 L 148.597656 90.558594 L 149.300781 84.535156 C 149.648438 81.226562 150.203125 77.414062 150.503906 76.058594 C 151.054688 73.449219 150.902344 72.597656 150.101562 74.101562 Z M 150.101562 74.101562 " class="svg-elem-48"></path>
<path style="stroke: none; fill-rule: nonzero; fill: rgb(0, 0, 0); fill-opacity: 1;" d="M 161.589844 76.058594 C 160.738281 79.417969 160.386719 82.78125 160.886719 82.78125 C 161.539062 82.78125 163.042969 75.15625 162.542969 74.550781 C 162.292969 74.300781 161.890625 75.003906 161.589844 76.058594 Z M 161.589844 76.058594 " class="svg-elem-49"></path>
<path style="stroke: none; fill-rule: nonzero; fill: rgb(0, 0, 0); fill-opacity: 1;" d="M 171.371094 76.359375 C 170.21875 80.273438 169.71875 85.289062 170.46875 85.289062 C 171.019531 85.289062 172.527344 76.257812 171.976562 75.957031 C 171.773438 75.808594 171.472656 76.007812 171.371094 76.359375 Z M 171.371094 76.359375 " class="svg-elem-50"></path>
<path style="stroke: none; fill-rule: nonzero; fill: rgb(0, 0, 0); fill-opacity: 1;" d="M 166.757812 76.808594 C 166.304688 77.5625 165.855469 84.636719 166.15625 86.042969 C 166.253906 86.59375 166.65625 84.738281 167.007812 81.878906 C 167.660156 76.910156 167.609375 75.507812 166.757812 76.808594 Z M 166.757812 76.808594 " class="svg-elem-51"></path>
<path style="stroke: none; fill-rule: nonzero; fill: rgb(0, 0, 0); fill-opacity: 1;" d="M 175.886719 77.0625 C 175.738281 77.511719 175.585938 78.917969 175.585938 80.273438 C 175.585938 82.929688 175.9375 84.285156 176.640625 84.285156 C 176.890625 84.285156 177.089844 82.480469 177.089844 80.273438 C 177.089844 76.507812 176.589844 75.203125 175.886719 77.0625 Z M 175.886719 77.0625 " class="svg-elem-52"></path>
<path style="stroke: none; fill-rule: nonzero; fill: rgb(0, 0, 0); fill-opacity: 1;" d="M 143.53125 81.226562 C 142.878906 85.390625 142.828125 89.300781 143.429688 89.300781 C 143.878906 89.300781 144.785156 78.414062 144.382812 77.964844 C 144.230469 77.863281 143.878906 79.320312 143.53125 81.226562 Z M 143.53125 81.226562 " class="svg-elem-53"></path>
<path style="stroke: none; fill-rule: nonzero; fill: rgb(0, 0, 0); fill-opacity: 1;" d="M 139.765625 81.175781 C 138.613281 84.585938 137.910156 89.300781 138.261719 90.90625 C 138.761719 93.316406 139.464844 92.414062 139.464844 89.402344 C 139.464844 86.945312 140.117188 83.433594 141.273438 79.621094 C 141.421875 79.167969 141.320312 78.765625 141.019531 78.765625 C 140.769531 78.765625 140.167969 79.871094 139.765625 81.175781 Z M 139.765625 81.175781 " class="svg-elem-54"></path>
<path style="stroke: none; fill-rule: nonzero; fill: rgb(0, 0, 0); fill-opacity: 1;" d="M 266.539062 79.871094 C 266.691406 80.523438 266.992188 82.882812 267.191406 85.136719 C 267.34375 87.445312 267.695312 89.300781 267.894531 89.300781 C 268.296875 89.300781 268.046875 82.128906 267.59375 79.871094 C 267.492188 79.269531 267.144531 78.765625 266.839844 78.765625 C 266.492188 78.765625 266.390625 79.269531 266.539062 79.871094 Z M 266.539062 79.871094 " class="svg-elem-55"></path>
<path style="stroke: none; fill-rule: nonzero; fill: rgb(0, 0, 0); fill-opacity: 1;" d="M 262.074219 81.023438 C 262.277344 82.128906 262.578125 84.789062 262.726562 86.894531 C 262.878906 89.050781 263.230469 90.808594 263.429688 90.808594 C 264.484375 90.808594 263.480469 80.625 262.328125 79.570312 C 261.875 79.167969 261.824219 79.519531 262.074219 81.023438 Z M 262.074219 81.023438 " class="svg-elem-56"></path>
<path style="stroke: none; fill-rule: nonzero; fill: rgb(0, 0, 0); fill-opacity: 1;" d="M 272.460938 80.273438 C 272.460938 81.527344 274.265625 89.804688 274.617188 90.15625 C 275.621094 91.160156 274.167969 81.828125 273.113281 80.421875 C 272.609375 79.71875 272.460938 79.671875 272.460938 80.273438 Z M 272.460938 80.273438 " class="svg-elem-57"></path>
<path style="stroke: none; fill-rule: nonzero; fill: rgb(0, 0, 0); fill-opacity: 1;" d="M 282.746094 86.644531 C 283.144531 94.46875 283.949219 96.027344 283.949219 89.050781 C 283.949219 83.433594 283.546875 80.273438 282.84375 80.273438 C 282.59375 80.273438 282.542969 82.882812 282.746094 86.644531 Z M 282.746094 86.644531 " class="svg-elem-58"></path>
<path style="stroke: none; fill-rule: nonzero; fill: rgb(0, 0, 0); fill-opacity: 1;" d="M 287.109375 82.882812 C 287.261719 83.785156 287.660156 86.792969 288.011719 89.554688 C 288.3125 92.3125 288.664062 94.671875 288.765625 94.769531 C 289.214844 95.273438 288.914062 85.539062 288.414062 83.484375 C 287.761719 80.925781 286.707031 80.421875 287.109375 82.882812 Z M 287.109375 82.882812 " class="svg-elem-59"></path>
<path style="stroke: none; fill-rule: nonzero; fill: rgb(0, 0, 0); fill-opacity: 1;" d="M 278.179688 84.636719 C 278.378906 86.191406 278.632812 87.746094 278.78125 88.148438 C 279.132812 89.050781 280.035156 88.398438 279.734375 87.394531 C 279.632812 86.894531 279.382812 85.488281 279.183594 84.136719 C 279.03125 82.832031 278.632812 81.777344 278.328125 81.777344 C 277.980469 81.777344 277.929688 82.730469 278.179688 84.636719 Z M 278.179688 84.636719 " class="svg-elem-60"></path>
<path style="stroke: none; fill-rule: nonzero; fill: rgb(0, 0, 0); fill-opacity: 1;" d="M 160.484375 91.308594 C 160.335938 91.710938 160.335938 94.21875 160.484375 96.828125 L 160.789062 101.59375 L 161.136719 98.082031 C 161.4375 94.570312 160.988281 89.855469 160.484375 91.308594 Z M 160.484375 91.308594 " class="svg-elem-61"></path>
<path style="stroke: none; fill-rule: nonzero; fill: rgb(0, 0, 0); fill-opacity: 1;" d="M 155.820312 92.816406 C 155.21875 94.320312 154.667969 100.089844 155.019531 101.09375 C 155.269531 101.796875 155.570312 100.742188 156.019531 97.78125 C 156.625 93.617188 156.523438 91.058594 155.820312 92.816406 Z M 155.820312 92.816406 " class="svg-elem-62"></path>
<path style="stroke: none; fill-rule: nonzero; fill: rgb(0, 0, 0); fill-opacity: 1;" d="M 165.453125 92.5625 C 164.800781 93.566406 164.398438 99.1875 164.949219 99.539062 C 165.300781 99.738281 165.601562 98.835938 165.804688 97.179688 C 166.207031 94.21875 166.003906 91.761719 165.453125 92.5625 Z M 165.453125 92.5625 " class="svg-elem-63"></path>
<path style="stroke: none; fill-rule: nonzero; fill: rgb(0, 0, 0); fill-opacity: 1;" d="M 185.621094 97.378906 C 185.621094 100.238281 185.820312 101.796875 186.121094 101.59375 C 186.421875 101.445312 186.625 99.386719 186.625 97.027344 C 186.625 94.570312 186.421875 92.816406 186.121094 92.816406 C 185.820312 92.816406 185.621094 94.671875 185.621094 97.378906 Z M 185.621094 97.378906 " class="svg-elem-64"></path>
<path style="stroke: none; fill-rule: nonzero; fill: rgb(0, 0, 0); fill-opacity: 1;" d="M 190.988281 96.027344 C 190.636719 99.238281 190.738281 100.390625 191.390625 99.738281 C 191.539062 99.585938 191.640625 97.882812 191.539062 96.027344 L 191.390625 92.5625 Z M 190.988281 96.027344 " class="svg-elem-65"></path>
<path style="stroke: none; fill-rule: nonzero; fill: rgb(0, 0, 0); fill-opacity: 1;" d="M 218.230469 92.816406 C 217.878906 94.019531 217.828125 101.84375 218.179688 102.046875 C 218.882812 102.496094 219.382812 95.324219 218.78125 93.816406 C 218.53125 93.117188 218.28125 92.664062 218.230469 92.816406 Z M 218.230469 92.816406 " class="svg-elem-66"></path>
<path style="stroke: none; fill-rule: nonzero; fill: rgb(0, 0, 0); fill-opacity: 1;" d="M 212.460938 93.917969 C 212.359375 94.269531 212.160156 96.277344 212.007812 98.332031 C 211.757812 101.292969 211.808594 101.894531 212.257812 101.144531 C 212.910156 100.089844 213.5625 93.316406 213.011719 93.316406 C 212.8125 93.316406 212.609375 93.617188 212.460938 93.917969 Z M 212.460938 93.917969 " class="svg-elem-67"></path>
<path style="stroke: none; fill-rule: nonzero; fill: rgb(0, 0, 0); fill-opacity: 1;" d="M 222.242188 97.027344 C 222.242188 99.238281 222.441406 100.84375 222.746094 100.84375 C 223.046875 100.84375 223.246094 99.335938 223.246094 97.378906 C 223.246094 95.421875 223.046875 93.71875 222.746094 93.566406 C 222.441406 93.367188 222.242188 94.671875 222.242188 97.027344 Z M 222.242188 97.027344 " class="svg-elem-68"></path>
<path style="stroke: none; fill-rule: nonzero; fill: rgb(0, 0, 0); fill-opacity: 1;" d="M 148.898438 94.117188 C 148.648438 94.320312 148.496094 96.527344 148.546875 99.035156 C 148.597656 103.050781 148.648438 103.351562 149.046875 101.59375 C 149.601562 99.335938 149.449219 93.515625 148.898438 94.117188 Z M 148.898438 94.117188 " class="svg-elem-69"></path>
<path style="stroke: none; fill-rule: nonzero; fill: rgb(0, 0, 0); fill-opacity: 1;" d="M 170.921875 95.925781 C 170.769531 97.128906 170.820312 98.28125 171.121094 98.535156 C 171.371094 98.835938 171.574219 98.082031 171.574219 96.425781 C 171.574219 93.265625 171.324219 93.066406 170.921875 95.925781 Z M 170.921875 95.925781 " class="svg-elem-70"></path>
<path style="stroke: none; fill-rule: nonzero; fill: rgb(0, 0, 0); fill-opacity: 1;" d="M 251.539062 94.921875 C 251.742188 95.574219 252.140625 98.183594 252.445312 100.691406 C 253.09375 106.261719 254.148438 106.613281 253.648438 101.144531 C 253.296875 96.878906 252.492188 93.816406 251.742188 93.816406 C 251.441406 93.816406 251.339844 94.269531 251.539062 94.921875 Z M 251.539062 94.921875 " class="svg-elem-71"></path>
<path style="stroke: none; fill-rule: nonzero; fill: rgb(0, 0, 0); fill-opacity: 1;" d="M 177.492188 95.121094 C 177.242188 95.324219 177.089844 97.078125 177.140625 99.035156 C 177.191406 102.398438 177.242188 102.496094 177.644531 100.589844 C 178.195312 98.332031 178.042969 94.519531 177.492188 95.121094 Z M 177.492188 95.121094 " class="svg-elem-72"></path>
<path style="stroke: none; fill-rule: nonzero; fill: rgb(0, 0, 0); fill-opacity: 1;" d="M 181.65625 97.679688 C 181.707031 99.886719 181.808594 100.289062 182.109375 99.335938 C 182.710938 97.53125 182.710938 94.820312 182.109375 94.820312 C 181.808594 94.820312 181.605469 96.074219 181.65625 97.679688 Z M 181.65625 97.679688 " class="svg-elem-73"></path>
<path style="stroke: none; fill-rule: nonzero; fill: rgb(0, 0, 0); fill-opacity: 1;" d="M 234.332031 98.433594 C 234.382812 101.042969 234.484375 101.746094 234.785156 100.84375 C 235.386719 99.035156 235.386719 95.421875 234.785156 95.074219 C 234.484375 94.871094 234.28125 96.074219 234.332031 98.433594 Z M 234.332031 98.433594 " class="svg-elem-74"></path>
<path style="stroke: none; fill-rule: nonzero; fill: rgb(0, 0, 0); fill-opacity: 1;" d="M 208.746094 98.433594 C 208.796875 101.445312 208.847656 101.492188 209.25 99.585938 C 209.800781 96.828125 209.800781 95.324219 209.199219 95.324219 C 208.898438 95.324219 208.699219 96.675781 208.746094 98.433594 Z M 208.746094 98.433594 " class="svg-elem-75"></path>
<path style="stroke: none; fill-rule: nonzero; fill: rgb(0, 0, 0); fill-opacity: 1;" d="M 258.164062 99.585938 C 258.714844 105.707031 259.367188 106.914062 259.214844 101.445312 C 259.117188 98.585938 258.816406 96.578125 258.414062 96.175781 C 257.910156 95.675781 257.863281 96.375 258.164062 99.585938 Z M 258.164062 99.585938 " class="svg-elem-76"></path>
<path style="stroke: none; fill-rule: nonzero; fill: rgb(0, 0, 0); fill-opacity: 1;" d="M 264.683594 100.339844 C 265.285156 105.910156 265.789062 107.011719 265.839844 103.097656 C 265.886719 99.285156 265.539062 97.328125 264.785156 97.328125 C 264.535156 97.328125 264.484375 98.585938 264.683594 100.339844 Z M 264.683594 100.339844 " class="svg-elem-77"></path>
<path style="stroke: none; fill-rule: nonzero; fill: rgb(0, 0, 0); fill-opacity: 1;" d="M 279.933594 101.945312 C 279.933594 103.953125 280.1875 105.960938 280.4375 106.359375 C 280.789062 106.863281 280.9375 105.859375 280.9375 103 C 280.9375 100.742188 280.738281 98.734375 280.4375 98.585938 C 280.136719 98.382812 279.933594 99.636719 279.933594 101.945312 Z M 279.933594 101.945312 " class="svg-elem-78"></path>
<path style="stroke: none; fill-rule: nonzero; fill: rgb(0, 0, 0); fill-opacity: 1;" d="M 284.398438 99.539062 C 284.050781 99.9375 285.152344 108.265625 285.65625 108.71875 C 285.90625 108.96875 285.957031 107.363281 285.804688 104.957031 C 285.503906 101.09375 284.953125 98.984375 284.398438 99.539062 Z M 284.398438 99.539062 " class="svg-elem-79"></path>
<path style="stroke: none; fill-rule: nonzero; fill: rgb(0, 0, 0); fill-opacity: 1;" d="M 105.152344 129.339844 C 105 129.589844 107.660156 130.441406 111.019531 131.34375 C 114.382812 132.199219 117.542969 133.050781 118.042969 133.203125 C 118.496094 133.402344 118.898438 133.351562 118.898438 133.050781 C 118.898438 132.347656 114.785156 131.042969 106.757812 129.238281 C 106.003906 129.085938 105.300781 129.136719 105.152344 129.339844 Z M 105.152344 129.339844 " class="svg-elem-80"></path>
<path style="stroke: none; fill-rule: nonzero; fill: rgb(0, 0, 0); fill-opacity: 1;" d="M 116.390625 129.136719 C 116.390625 129.339844 120.25 130.644531 125.320312 132.199219 C 125.621094 132.347656 125.921875 132.097656 125.921875 131.746094 C 125.921875 131.34375 124.367188 130.691406 121.957031 130.039062 C 118.195312 128.988281 116.390625 128.6875 116.390625 129.136719 Z M 116.390625 129.136719 " class="svg-elem-81"></path>
<path style="stroke: none; fill-rule: nonzero; fill: rgb(0, 0, 0); fill-opacity: 1;" d="M 86.039062 130.945312 C 86.890625 131.195312 89.597656 131.695312 92.058594 132.148438 C 94.566406 132.597656 97.074219 133.101562 97.726562 133.25 C 98.328125 133.453125 98.832031 133.351562 98.832031 133.050781 C 98.832031 132.199219 90.300781 130.390625 86.589844 130.492188 C 84.582031 130.542969 84.582031 130.542969 86.039062 130.945312 Z M 86.039062 130.945312 " class="svg-elem-82"></path>
<path style="stroke: none; fill-rule: nonzero; fill: rgb(0, 0, 0); fill-opacity: 1;" d="M 102.089844 130.945312 C 101.738281 131.546875 101.640625 131.496094 108.0625 132.902344 C 112.574219 133.855469 114.03125 133.953125 113.277344 133.203125 C 113.027344 132.949219 106.707031 131.296875 103.996094 130.792969 C 103.09375 130.59375 102.242188 130.691406 102.089844 130.945312 Z M 102.089844 130.945312 " class="svg-elem-83"></path>
<path style="stroke: none; fill-rule: nonzero; fill: rgb(0, 0, 0); fill-opacity: 1;" d="M 66.019531 131.898438 C 65.769531 132.296875 71.238281 133.101562 71.640625 132.699219 C 71.738281 132.597656 71.691406 132.296875 71.488281 131.996094 C 71.136719 131.34375 66.421875 131.246094 66.019531 131.898438 Z M 66.019531 131.898438 " class="svg-elem-84"></path>
<path style="stroke: none; fill-rule: nonzero; fill: rgb(0, 0, 0); fill-opacity: 1;" d="M 52.175781 132.449219 C 52.175781 132.75 53.78125 132.949219 55.988281 132.949219 C 58.34375 132.949219 59.648438 132.75 59.449219 132.449219 C 59.296875 132.148438 57.59375 131.949219 55.636719 131.949219 C 53.679688 131.949219 52.175781 132.148438 52.175781 132.449219 Z M 52.175781 132.449219 " class="svg-elem-85"></path>
<path style="stroke: none; fill-rule: nonzero; fill: rgb(0, 0, 0); fill-opacity: 1;" d="M 78.863281 132.398438 C 78.410156 132.648438 79.316406 132.949219 81.371094 133.152344 C 83.078125 133.351562 86.085938 133.855469 87.992188 134.253906 C 91.355469 134.957031 92.761719 134.855469 91.304688 133.953125 C 90.953125 133.703125 88.695312 133.25 86.339844 132.949219 C 83.980469 132.648438 81.472656 132.296875 80.769531 132.148438 C 80.066406 132.046875 79.214844 132.148438 78.863281 132.398438 Z M 78.863281 132.398438 " class="svg-elem-86"></path>
<path style="stroke: none; fill-rule: nonzero; fill: rgb(0, 0, 0); fill-opacity: 1;" d="M 36.875 134.003906 C 35.871094 134.203125 36.773438 134.355469 39.582031 134.40625 C 41.890625 134.40625 43.695312 134.304688 43.496094 134.15625 C 43.09375 133.703125 38.578125 133.601562 36.875 134.003906 Z M 36.875 134.003906 " class="svg-elem-87"></path>
<path style="stroke: none; fill-rule: nonzero; fill: rgb(0, 0, 0); fill-opacity: 1;" d="M 315.957031 136.414062 C 314.097656 136.863281 312.394531 137.414062 312.242188 137.617188 C 311.390625 138.46875 312.644531 138.417969 316.355469 137.464844 C 318.515625 136.914062 320.871094 136.460938 321.574219 136.460938 C 322.277344 136.460938 323.179688 136.210938 323.582031 135.960938 C 324.886719 135.109375 319.667969 135.410156 315.957031 136.414062 Z M 315.957031 136.414062 " class="svg-elem-88"></path>
<path style="stroke: none; fill-rule: nonzero; fill: rgb(0, 0, 0); fill-opacity: 1;" d="M 126.273438 136.3125 C 125.871094 136.664062 136.054688 140.023438 136.40625 139.671875 C 137.058594 139.070312 135.652344 138.519531 127.375 136.160156 C 126.972656 136.0625 126.421875 136.113281 126.273438 136.3125 Z M 126.273438 136.3125 " class="svg-elem-89"></path>
<path style="stroke: none; fill-rule: nonzero; fill: rgb(0, 0, 0); fill-opacity: 1;" d="M 321.824219 137.515625 C 317.261719 138.621094 315.402344 139.824219 319.066406 139.273438 C 322.074219 138.820312 327.644531 137.464844 328.597656 136.914062 C 329.953125 136.160156 326.039062 136.511719 321.824219 137.515625 Z M 321.824219 137.515625 " class="svg-elem-90"></path>
<path style="stroke: none; fill-rule: nonzero; fill: rgb(0, 0, 0); fill-opacity: 1;" d="M 110.417969 137.164062 C 110.71875 137.464844 122.507812 140.476562 123.363281 140.476562 C 124.617188 140.476562 123.460938 139.773438 120.753906 138.871094 L 118.144531 137.96875 L 120.601562 138.269531 C 122.710938 138.519531 127.625 139.824219 130.234375 140.828125 C 130.636719 140.976562 130.9375 140.878906 130.9375 140.578125 C 130.9375 139.121094 117.492188 136.113281 116.691406 137.367188 C 116.488281 137.71875 115.835938 137.71875 114.734375 137.414062 C 113.128906 136.964844 110.019531 136.761719 110.417969 137.164062 Z M 110.417969 137.164062 " class="svg-elem-91"></path>
<path style="stroke: none; fill-rule: nonzero; fill: rgb(0, 0, 0); fill-opacity: 1;" d="M 295.539062 138.519531 C 291.222656 139.972656 290.621094 140.277344 291.074219 140.726562 C 291.375 141.078125 300.605469 138.066406 301.257812 137.414062 C 302.109375 136.5625 299.902344 137.015625 295.539062 138.519531 Z M 295.539062 138.519531 " class="svg-elem-92"></path>
<path style="stroke: none; fill-rule: nonzero; fill: rgb(0, 0, 0); fill-opacity: 1;" d="M 96.171875 137.816406 C 94.617188 138.21875 95.769531 138.921875 97.527344 138.621094 C 98.480469 138.46875 100.285156 138.71875 101.640625 139.121094 C 102.992188 139.574219 105.550781 140.074219 107.359375 140.277344 C 109.164062 140.425781 111.574219 141.027344 112.777344 141.53125 C 113.929688 142.03125 116.691406 142.683594 118.847656 142.984375 C 120.953125 143.285156 124.515625 144.039062 126.671875 144.742188 C 128.878906 145.394531 130.738281 145.84375 130.835938 145.742188 C 131.789062 144.839844 122.410156 141.980469 118.445312 141.980469 C 116.992188 141.980469 115.285156 141.53125 113.878906 140.777344 C 112.425781 140.023438 110.269531 139.472656 107.859375 139.273438 C 105.804688 139.070312 103.144531 138.570312 101.941406 138.167969 C 99.832031 137.464844 97.925781 137.367188 96.171875 137.816406 Z M 96.171875 137.816406 " class="svg-elem-93"></path>
<path style="stroke: none; fill-rule: nonzero; fill: rgb(0, 0, 0); fill-opacity: 1;" d="M 299.902344 139.824219 C 298.296875 140.226562 296.992188 140.777344 296.992188 141.027344 C 296.992188 141.277344 297.144531 141.480469 297.34375 141.480469 C 298.296875 141.480469 304.316406 139.824219 304.769531 139.421875 C 305.421875 138.769531 303.214844 138.972656 299.902344 139.824219 Z M 299.902344 139.824219 " class="svg-elem-94"></path>
<path style="stroke: none; fill-rule: nonzero; fill: rgb(0, 0, 0); fill-opacity: 1;" d="M 330.101562 139.824219 C 327.292969 140.324219 325.085938 141.027344 325.285156 141.429688 C 325.539062 141.832031 334.917969 140.324219 335.472656 139.773438 C 335.820312 139.421875 332.160156 139.472656 330.101562 139.824219 Z M 330.101562 139.824219 " class="svg-elem-95"></path>
<path style="stroke: none; fill-rule: nonzero; fill: rgb(0, 0, 0); fill-opacity: 1;" d="M 305.019531 141.277344 C 300.804688 142.53125 298.847656 143.535156 300.804688 143.4375 C 302.710938 143.386719 309.734375 141.179688 309.9375 140.578125 C 310.1875 139.773438 310.035156 139.824219 305.019531 141.277344 Z M 305.019531 141.277344 " class="svg-elem-96"></path>
<path style="stroke: none; fill-rule: nonzero; fill: rgb(0, 0, 0); fill-opacity: 1;" d="M 146.488281 140.878906 C 146.488281 141.128906 146.992188 141.480469 147.644531 141.628906 C 148.246094 141.730469 150.101562 142.230469 151.757812 142.683594 C 153.363281 143.136719 154.917969 143.285156 155.167969 143.035156 C 155.367188 142.835938 154.015625 142.230469 152.160156 141.78125 C 150.300781 141.328125 148.246094 140.828125 147.644531 140.675781 C 146.992188 140.476562 146.488281 140.578125 146.488281 140.878906 Z M 146.488281 140.878906 " class="svg-elem-97"></path>
<path style="stroke: none; fill-rule: nonzero; fill: rgb(0, 0, 0); fill-opacity: 1;" d="M 338.230469 141.980469 C 335.21875 142.785156 333.664062 143.6875 334.167969 144.1875 C 334.265625 144.339844 335.621094 143.988281 337.175781 143.488281 C 338.679688 142.933594 341.390625 142.28125 343.097656 142.03125 C 344.851562 141.730469 346.40625 141.378906 346.558594 141.230469 C 347.210938 140.625 341.140625 141.128906 338.230469 141.980469 Z M 338.230469 141.980469 " class="svg-elem-98"></path>
<path style="stroke: none; fill-rule: nonzero; fill: rgb(0, 0, 0); fill-opacity: 1;" d="M 349.265625 142.03125 C 346.308594 142.53125 342.59375 143.988281 343.496094 144.339844 C 343.796875 144.441406 345.402344 144.1875 347.007812 143.789062 C 348.613281 143.335938 351.625 142.835938 353.683594 142.683594 C 355.738281 142.484375 357.894531 142.183594 358.449219 141.929688 C 359.800781 141.378906 352.679688 141.480469 349.265625 142.03125 Z M 349.265625 142.03125 " class="svg-elem-99"></path>
<path style="stroke: none; fill-rule: nonzero; fill: rgb(0, 0, 0); fill-opacity: 1;" d="M 309.382812 143.035156 C 305.421875 143.988281 303.214844 144.890625 303.664062 145.292969 C 303.867188 145.542969 305.773438 145.09375 312.191406 143.4375 C 313.195312 143.183594 314.050781 142.734375 314.050781 142.484375 C 314.050781 141.882812 314.097656 141.832031 309.382812 143.035156 Z M 309.382812 143.035156 " class="svg-elem-100"></path>
<path style="stroke: none; fill-rule: nonzero; fill: rgb(0, 0, 0); fill-opacity: 1;" d="M 248.582031 143.789062 C 243.5625 145.34375 240.804688 146.496094 240.804688 147.097656 C 240.804688 147.652344 240.605469 147.699219 246.472656 145.742188 C 249.332031 144.789062 252.09375 143.988281 252.542969 143.988281 C 252.996094 143.988281 253.347656 143.636719 253.347656 143.234375 C 253.347656 142.28125 253.398438 142.28125 248.582031 143.789062 Z M 248.582031 143.789062 " class="svg-elem-101"></path>
<path style="stroke: none; fill-rule: nonzero; fill: rgb(0, 0, 0); fill-opacity: 1;" d="M 257.863281 143.6875 C 251.742188 144.992188 250.6875 145.34375 251.039062 145.894531 C 251.1875 146.144531 253.296875 145.945312 255.703125 145.441406 C 258.113281 144.890625 261.421875 144.238281 263.027344 143.9375 C 264.585938 143.636719 265.789062 143.183594 265.636719 142.933594 C 265.234375 142.28125 263.882812 142.433594 257.863281 143.6875 Z M 257.863281 143.6875 " class="svg-elem-102"></path>
<path style="stroke: none; fill-rule: nonzero; fill: rgb(0, 0, 0); fill-opacity: 1;" d="M 146.039062 144.742188 C 149.949219 146.09375 154.015625 146.847656 153.261719 146.09375 C 152.609375 145.441406 145.535156 143.488281 143.929688 143.535156 C 143.179688 143.535156 143.980469 143.988281 146.039062 144.742188 Z M 146.039062 144.742188 " class="svg-elem-103"></path>
<path style="stroke: none; fill-rule: nonzero; fill: rgb(0, 0, 0); fill-opacity: 1;" d="M 265.886719 144.488281 C 260.320312 145.492188 257.160156 146.445312 258.261719 146.847656 C 259.164062 147.199219 273.414062 144.441406 273.414062 143.9375 C 273.414062 143.335938 271.957031 143.4375 265.886719 144.488281 Z M 265.886719 144.488281 " class="svg-elem-104"></path>
<path style="stroke: none; fill-rule: nonzero; fill: rgb(0, 0, 0); fill-opacity: 1;" d="M 311.84375 144.488281 C 308.933594 145.242188 306.425781 146.496094 307.726562 146.496094 C 308.730469 146.496094 316.355469 144.339844 316.808594 143.9375 C 317.511719 143.234375 315.753906 143.4375 311.84375 144.488281 Z M 311.84375 144.488281 " class="svg-elem-105"></path>
<path style="stroke: none; fill-rule: nonzero; fill: rgb(0, 0, 0); fill-opacity: 1;" d="M 317.660156 146.496094 C 311.089844 148.351562 311.238281 148.253906 311.792969 148.605469 C 312.191406 148.804688 317.410156 147.75 323.480469 146.246094 C 324.785156 145.945312 324.984375 144.992188 323.730469 145.042969 C 323.230469 145.042969 320.472656 145.742188 317.660156 146.496094 Z M 317.660156 146.496094 " class="svg-elem-106"></path>
<path style="stroke: none; fill-rule: nonzero; fill: rgb(0, 0, 0); fill-opacity: 1;" d="M 346.910156 146.746094 C 342.496094 147.699219 338.632812 148.453125 338.332031 148.503906 C 338.078125 148.503906 337.378906 148.804688 336.824219 149.207031 C 335.972656 149.859375 336.125 149.859375 338.128906 149.457031 C 339.382812 149.257812 343.796875 148.453125 347.914062 147.75 C 358.347656 145.945312 358.148438 145.996094 358.449219 145.441406 C 359 144.589844 354.984375 145.042969 346.910156 146.746094 Z M 346.910156 146.746094 " class="svg-elem-107"></path>
<path style="stroke: none; fill-rule: nonzero; fill: rgb(0, 0, 0); fill-opacity: 1;" d="M 142.273438 145.894531 C 142.777344 146.394531 149.851562 148.503906 150.902344 148.503906 C 151.207031 148.503906 151.507812 148.300781 151.507812 148.050781 C 151.507812 147.800781 149.601562 147.148438 147.242188 146.546875 C 142.625 145.394531 141.523438 145.242188 142.273438 145.894531 Z M 142.273438 145.894531 " class="svg-elem-108"></path>
<path style="stroke: none; fill-rule: nonzero; fill: rgb(0, 0, 0); fill-opacity: 1;" d="M 267.042969 147 C 262.878906 147.601562 261.675781 148 262.226562 148.554688 C 262.527344 148.855469 263.53125 148.855469 265.085938 148.503906 C 266.390625 148.203125 269.449219 147.851562 271.957031 147.652344 C 274.417969 147.5 276.574219 147.148438 276.726562 146.898438 C 277.027344 146.394531 270.703125 146.445312 267.042969 147 Z M 267.042969 147 " class="svg-elem-109"></path>
<path style="stroke: none; fill-rule: nonzero; fill: rgb(0, 0, 0); fill-opacity: 1;" d="M 138.160156 147.953125 C 138.414062 148.351562 141.070312 149.003906 150.703125 151.113281 C 152.058594 151.414062 154.816406 152.417969 156.875 153.371094 C 159.433594 154.574219 162.140625 155.328125 165.601562 155.828125 C 168.3125 156.230469 171.472656 156.882812 172.625 157.28125 C 175.183594 158.1875 176.539062 158.285156 175.738281 157.484375 C 174.882812 156.632812 168.714844 155.027344 164.550781 154.574219 C 161.992188 154.324219 159.835938 153.671875 157.726562 152.667969 C 154.015625 150.8125 150.554688 149.707031 147.242188 149.257812 C 145.886719 149.054688 143.480469 148.605469 141.972656 148.203125 C 138.8125 147.398438 137.808594 147.300781 138.160156 147.953125 Z M 138.160156 147.953125 " class="svg-elem-110"></path>
<path style="stroke: none; fill-rule: nonzero; fill: rgb(0, 0, 0); fill-opacity: 1;" d="M 323.332031 148.050781 C 321.675781 148.253906 319.316406 148.804688 318.0625 149.207031 L 315.804688 150.007812 L 317.8125 149.707031 C 318.914062 149.558594 321.625 149.257812 323.832031 149.003906 C 326.039062 148.753906 327.894531 148.554688 327.996094 148.554688 C 328.046875 148.503906 328.097656 148.253906 328.097656 148 C 328.097656 147.449219 327.644531 147.449219 323.332031 148.050781 Z M 323.332031 148.050781 " class="svg-elem-111"></path>
<path style="stroke: none; fill-rule: nonzero; fill: rgb(0, 0, 0); fill-opacity: 1;" d="M 269.148438 149.355469 C 266.640625 149.707031 266.492188 150.511719 268.949219 150.511719 C 272.058594 150.511719 274.96875 149.957031 274.617188 149.457031 C 274.367188 149.003906 271.957031 148.953125 269.148438 149.355469 Z M 269.148438 149.355469 " class="svg-elem-112"></path>
<path style="stroke: none; fill-rule: nonzero; fill: rgb(0, 0, 0); fill-opacity: 1;" d="M 215.117188 151.210938 C 211.105469 152.015625 210.804688 152.71875 214.71875 152.265625 C 218.230469 151.863281 218.730469 151.714844 218.730469 150.960938 C 218.730469 150.710938 218.582031 150.558594 218.378906 150.558594 C 218.128906 150.609375 216.675781 150.910156 215.117188 151.210938 Z M 215.117188 151.210938 " class="svg-elem-113"></path>
<path style="stroke: none; fill-rule: nonzero; fill: rgb(0, 0, 0); fill-opacity: 1;" d="M 325.335938 151.511719 C 323.128906 152.015625 318.867188 152.71875 315.804688 153.019531 C 308.832031 153.722656 306.472656 154.421875 310.789062 154.472656 C 317.308594 154.574219 330.605469 152.214844 330.605469 150.960938 C 330.605469 150.359375 330.101562 150.410156 325.335938 151.511719 Z M 325.335938 151.511719 " class="svg-elem-114"></path>
<path style="stroke: none; fill-rule: nonzero; fill: rgb(0, 0, 0); fill-opacity: 1;" d="M 235.535156 152.867188 C 233.429688 153.320312 231.222656 154.121094 231.421875 154.324219 C 231.773438 154.722656 238.296875 153.46875 238.597656 152.96875 C 238.847656 152.515625 237.34375 152.46875 235.535156 152.867188 Z M 235.535156 152.867188 " class="svg-elem-115"></path>
<path style="stroke: none; fill-rule: nonzero; fill: rgb(0, 0, 0); fill-opacity: 1;" d="M 220.789062 155.476562 C 219.535156 155.628906 218.480469 156.078125 218.328125 156.429688 C 218.179688 156.980469 218.78125 157.03125 221.539062 156.78125 C 225.402344 156.378906 226.15625 156.078125 225.203125 155.476562 C 224.449219 155.027344 224.199219 155.027344 220.789062 155.476562 Z M 220.789062 155.476562 " class="svg-elem-116"></path>
<path style="stroke: none; fill-rule: nonzero; fill: rgb(0, 0, 0); fill-opacity: 1;" d="M 234.582031 156.078125 C 233.230469 156.28125 231.875 156.730469 231.574219 157.082031 C 231.171875 157.535156 231.421875 157.585938 232.777344 157.382812 C 233.730469 157.183594 235.9375 156.933594 237.695312 156.730469 C 239.398438 156.53125 240.957031 156.179688 241.105469 155.980469 C 241.40625 155.425781 237.996094 155.476562 234.582031 156.078125 Z M 234.582031 156.078125 " class="svg-elem-117"></path>
<path style="stroke: none; fill-rule: nonzero; fill: rgb(0, 0, 0); fill-opacity: 1;" d="M 181.605469 159.289062 C 181.605469 159.691406 182.8125 159.992188 185.019531 160.144531 C 186.875 160.292969 189.132812 160.796875 190.035156 161.246094 C 191.039062 161.75 193.898438 162.300781 197.558594 162.601562 C 200.769531 162.902344 204.785156 163.554688 206.441406 164.054688 C 208.09375 164.609375 212.007812 165.261719 215.167969 165.613281 C 218.328125 165.914062 221.441406 166.363281 222.09375 166.613281 C 223.699219 167.21875 234.28125 167.21875 234.28125 166.613281 C 234.28125 166.3125 231.421875 166.011719 227.910156 165.914062 C 224.351562 165.8125 219.785156 165.359375 217.726562 164.910156 C 215.671875 164.457031 212.960938 164.105469 211.707031 164.054688 C 210.453125 164.054688 208.09375 163.605469 206.390625 163.101562 C 204.734375 162.550781 201.574219 162 199.367188 161.847656 C 194.449219 161.449219 193.144531 161.195312 189.632812 160.042969 C 186.121094 158.839844 181.605469 158.4375 181.605469 159.289062 Z M 181.605469 159.289062 " class="svg-elem-118"></path>
<path style="stroke: none; fill-rule: nonzero; fill: rgb(0, 0, 0); fill-opacity: 1;" d="M 236.792969 158.886719 C 234.082031 159.289062 231.273438 160.191406 231.273438 160.644531 C 231.273438 160.945312 231.625 160.996094 232.074219 160.84375 C 232.476562 160.695312 234.886719 160.292969 237.445312 159.992188 C 240 159.640625 242.257812 159.191406 242.558594 158.9375 C 243.011719 158.539062 239.25 158.488281 236.792969 158.886719 Z M 236.792969 158.886719 " class="svg-elem-119"></path>
<path style="stroke: none; fill-rule: nonzero; fill: rgb(0, 0, 0); fill-opacity: 1;" d="M 241.15625 161.246094 C 238.445312 162 237.242188 162.851562 239.601562 162.402344 C 240.453125 162.25 242.308594 161.949219 243.765625 161.75 C 245.167969 161.546875 246.472656 161.195312 246.625 160.996094 C 247.023438 160.34375 243.964844 160.492188 241.15625 161.246094 Z M 241.15625 161.246094 " class="svg-elem-120"></path>
<path style="stroke: none; fill-rule: nonzero; fill: rgb(0, 0, 0); fill-opacity: 1;" d="M 257.460938 162.550781 C 254.699219 163.203125 254.953125 163.703125 257.863281 163.355469 C 259.367188 163.203125 261.121094 163.050781 261.773438 163.050781 C 262.375 163.050781 262.878906 162.800781 262.878906 162.550781 C 262.878906 161.949219 259.867188 161.949219 257.460938 162.550781 Z M 257.460938 162.550781 " class="svg-elem-121"></path>
<path style="stroke: none; fill-rule: nonzero; fill: rgb(0, 0, 0); fill-opacity: 1;" d="M 244.96875 163.152344 C 243.765625 163.402344 242.8125 163.804688 242.8125 164.105469 C 242.8125 164.355469 243.011719 164.558594 243.3125 164.558594 C 244.46875 164.558594 249.132812 163.402344 249.582031 163.003906 C 250.1875 162.449219 247.777344 162.5 244.96875 163.152344 Z M 244.96875 163.152344 " class="svg-elem-122"></path>
</g>
</svg>
