<?xml version="1.0" standalone="no"?>
<!DOCTYPE svg PUBLIC "-//W3C//DTD SVG 20010904//EN"
 "http://www.w3.org/TR/2001/REC-SVG-20010904/DTD/svg10.dtd">
<svg version="1.0" xmlns="http://www.w3.org/2000/svg"
 width="100.000000pt" height="100.000000pt" viewBox="0 0 100.000000 100.000000"
 preserveAspectRatio="xMidYMid meet">

<g transform="translate(0.000000,100.000000) scale(0.100000,-0.100000)"
fill="#000000" stroke="none">
<path d="M472 938 c-10 -24 -40 -98 -66 -165 l-47 -121 -107 -6 c-213 -13
-252 -17 -252 -31 0 -9 211 -191 263 -226 8 -6 -56 -273 -80 -335 -3 -8 2 -17
11 -20 10 -4 65 25 151 80 75 48 141 89 148 92 7 2 76 -36 154 -86 79 -49 147
-90 153 -90 17 0 12 27 -31 193 -23 87 -39 159 -38 161 67 47 269 221 269 231
0 14 -43 19 -247 31 l-112 6 -63 161 c-35 88 -69 162 -75 165 -8 2 -21 -15
-31 -40z m221 -332 c45 -3 112 -6 148 -6 36 0 68 -3 72 -6 3 -4 -44 -47 -104
-96 -61 -50 -113 -97 -116 -105 -3 -8 10 -76 30 -151 19 -75 34 -138 32 -140
-2 -2 -59 32 -126 76 l-124 80 -2 318 -2 319 55 -141 56 -141 81 -7z"/>
</g>
</svg>
