<?xml version="1.0" standalone="no"?>
<!DOCTYPE svg PUBLIC "-//W3C//DTD SVG 20010904//EN"
 "http://www.w3.org/TR/2001/REC-SVG-20010904/DTD/svg10.dtd">
<svg version="1.0" xmlns="http://www.w3.org/2000/svg"
 width="100.000000pt" height="100.000000pt" viewBox="0 0 100.000000 100.000000"
 preserveAspectRatio="xMidYMid meet">

<g transform="translate(0.000000,100.000000) scale(0.100000,-0.100000)"
fill="#000000" stroke="none">
<path d="M483 968 c-5 -7 -21 -44 -36 -83 -14 -38 -39 -107 -57 -152 l-31 -81
-107 -6 c-213 -13 -252 -17 -252 -31 0 -10 168 -153 258 -221 12 -9 8 -33 -27
-165 -23 -85 -44 -162 -47 -172 -13 -41 30 -25 166 62 77 50 145 91 150 91 6
0 73 -41 151 -91 131 -84 180 -103 166 -65 -21 55 -87 330 -80 336 4 4 66 53
136 110 70 57 126 108 124 114 -4 12 -72 21 -250 33 l-108 8 -62 159 c-34 88
-67 161 -73 163 -6 2 -15 -2 -21 -9z"/>
</g>
</svg>
